<?xml version="1.0" encoding="utf-8"?>
<!-- Generator: Adobe Illustrator 21.1.0, SVG Export Plug-In . SVG Version: 6.00 Build 0)  -->
<svg version="1.1" id="Layer_1" xmlns="http://www.w3.org/2000/svg" xmlns:xlink="http://www.w3.org/1999/xlink" x="0px" y="0px"
	 width="100%" height="100%" viewBox="0 0 159 108" style="enable-background:new 0 0 159 108;" xml:space="preserve">
	<defs>
		<style type="text/css">
	.st0{fill:none;stroke:#fff;stroke-miterlimit:5;}
	.st1{fill:none;stroke:#fff;stroke-miterlimit:1;}
			.st0,.st1{
				stroke-dasharray: 500;
				stroke-dashoffset: 0;
				-webkit-animation: dash 8s alternate;
				-o-animation: dash 8s alternate;
				-moz-animation: dash 8s alternate;
				animation: dash 8s alternate;
			}
			@-webkit-keyframes dash {
				from {
					stroke:#00d1b2;
					stroke-dashoffset: 500;
				}
				to{
					stroke:#fff;
					stroke-dashoffset: 0;
				}
			}
		</style>
	</defs>
<g>
	<path class="st0" d="M10.4,20.1H19c5.1,0,6.9,2.2,6.9,5.9v3.6c0,3.7-1.8,5.9-6.9,5.9h-5.6V44h-3.1V20.1z M18.9,22.8h-5.5v9.9h5.5
		c3,0,4-0.8,4-3.2V26C22.9,23.6,21.9,22.8,18.9,22.8z"/>
	<path class="st0" d="M30.6,25.3H43V28h-9.4v5.3h8.7v2.7h-8.7v5.5H43V44H30.6V25.3z"/>
	<path class="st0" d="M56.8,37.8h-5.1V44h-3.1V25.3H57c4.5,0,5.9,1.8,5.9,4.8v3c0,2.2-0.7,3.7-2.8,4.4l4.4,6.6H61L56.8,37.8z
		 M51.7,35.3h5.5c2.1,0,2.6-0.7,2.6-2.4v-2.4c0-1.7-0.5-2.4-2.6-2.4h-5.5V35.3z"/>
	<path class="st0" d="M77.1,25.3c4.5,0,5.9,1.8,5.9,4.8v3.1c0,3-1.3,4.8-5.9,4.8h-4.9V44h-3.1V25.3H77.1z M72.2,35.3h5.1
		c2.1,0,2.6-0.7,2.6-2.4v-2.5c0-1.7-0.5-2.4-2.6-2.4h-5.1V35.3z"/>
	<path class="st0" d="M102.6,25.3v13.4c0,3.1-1.8,5.7-7.6,5.7c-5.7,0-7.6-2.6-7.6-5.7V25.3h3.1v13.1c0,2.1,1.1,3.3,4.5,3.3
		c3.4,0,4.5-1.2,4.5-3.3V25.3H102.6z"/>
	<path class="st0" d="M114.6,44.4c-1.9,0-4.6-0.4-6.4-1.1l0.4-2.4c2,0.6,4.2,0.9,6,0.9c3.1,0,3.7-0.5,3.7-2.5c0-2.2,0-2.3-4.3-3.4
		c-5.5-1.4-5.7-2.4-5.7-5.9c0-3.8,1.7-5,6.9-5c1.6,0,4,0.3,5.7,0.7l-0.3,2.5c-1.6-0.3-4-0.6-5.4-0.6c-3.4,0-3.9,0.3-3.9,2.5
		c0,2.1,0,2.2,4.2,3.3c5.5,1.5,5.8,2.2,5.8,5.8C121.5,42.7,120.4,44.4,114.6,44.4z"/>
</g>
<g>
	<path class="st0" d="M91.1,6h59.5v10.6l-39.9,86.2H98l39.7-85.8H91.1V6z"/>
</g>
<path class="st1" d="M98.9,100.1c0-0.4,0.1-0.7,0.2-1.1c0,0,0,0,0,0c0.3-1,0.9-2,1.9-2.6l0.3-0.6c0.2-1,0.7-1.9,1.4-2.5l1-1.8
	c0.2-0.9,0.6-1.7,1.2-2.4c0.1-0.7,0.3-1.4,0.7-2.1c0.3-0.9,0.7-1.7,1.3-2.4c0.2-0.7,0.6-1.4,1.2-2V54.4c-1,0-2,0-3,0
	c-0.6,0-0.8-0.1-0.8-0.6c0-1.1,0-2.2,0-3.3c0-1.1-0.7-1.6-2.2-1.6c-11.7,0-23.4,0-35.1,0c-2.6,0-4.9,0.7-6.8,2.1
	c-0.2,0.2-0.4,0.4-0.6,0.7c-1.9-1.6-4-2.6-6.6-2.7C51.4,49,49.8,49,48.3,49c-10.4,0-20.8,0-31.2,0c-1.7,0-2.3,0.4-2.3,1.6
	c0,1,0,2.1,0,3.1c0,0.5-0.2,0.6-0.9,0.6c-1,0-2,0-2.9,0v45.7c13.2,0,26.3,0,39.5,0c0.4,0,0.9,0.2,1.3,0.4c4.4,3,11,3,15.4,0
	c0.5-0.3,1-0.5,1.7-0.5C78.9,100.1,88.9,100.1,98.9,100.1C98.9,100.1,98.9,100.1,98.9,100.1z M67.7,94.8c-3.2,0-5.9,0.7-8,2.5
	c-0.1,0-0.1,0.1-0.2,0.1c-0.1,0-0.2,0-0.2,0c-2.2-1.9-5-2.6-8.4-2.6c-10.5,0.1-21,0-31.5,0c-0.9,0-1.2-0.2-1.2-0.8
	c0-13.8,0-27.7,0-41.5v-0.8h1.1c10.7,0,21.4,0,32,0c3.9,0,6.1,1.6,6.1,4.4c0,8.2,0,16.5,0,24.7c0,0.3,0,0.5,0,0.8
	c0.1,0.7,0.9,1.2,1.8,1.2c0.9,0,1.7-0.4,1.8-1.1c0.1-0.2,0-0.5,0-0.7c0-8.3,0-16.6,0-24.9c0-2.1,1.6-3.7,4.3-4.1
	c0.5-0.1,0.9-0.1,1.4-0.1c10.9,0,21.8,0,32.7,0c0.2,0,0.5,0,0.9,0v43c-0.4,0-0.8,0-1.2,0C88.9,94.8,78.3,94.8,67.7,94.8z"/>
<g>
</g>
<g>
</g>
<g>
</g>
<g>
</g>
<g>
</g>
<g>
</g>
<g>
</g>
<g>
</g>
<g>
</g>
<g>
</g>
<g>
</g>
<g>
</g>
<g>
</g>
<g>
</g>
<g>
</g>
</svg>
