<?xml version="1.0" encoding="utf-8"?>
<!-- Generator: Adobe Illustrator 21.1.0, SVG Export Plug-In . SVG Version: 6.00 Build 0)  -->
<svg version="1.1" id="Layer_1" xmlns="http://www.w3.org/2000/svg" xmlns:xlink="http://www.w3.org/1999/xlink" x="0px" y="0px"
	 width="100%" height="100%" viewBox="0 0 252 252" style="enable-background:new 0 0 252 252;" xml:space="preserve">
<defs>
		<style type="text/css">
	.st0{fill:none;}
	.st1{fill:none;stroke:#fff;stroke-miterlimit:5;}
			.st0,.st1{
				stroke-dasharray: 2000;
				stroke-dashoffset: 0;
				-webkit-animation: dash 8s alternate infinite;
				-o-animation: dash 8s alternate infinite;
				-moz-animation: dash 8s alternate infinite;
				animation: dash 8s alternate infinite;
			}
			@-webkit-keyframes dash {
				0% {
					stroke:#ff;
					stroke-dashoffset: 2000;
				}
				50%{
					stroke:#00d1b2;
					stroke-dashoffset: 0;
				}
				to {
					stroke:#ff;
					stroke-dashoffset: 2000;
				}
			}
		</style>
	</defs>
<g>
	<path class="st0" d="M256.429,257.087c-86.427,0-172.853,0-259.28,0c0-86.599,0-173.199,0-259.798c86.427,0,172.853,0,259.28,0
		C256.429,83.888,256.429,170.487,256.429,257.087z M4.662,123.25c-0.119,0.005-0.238,0.009-0.357,0.014
		c0.239,5.15,0.294,10.317,0.75,15.448c1.321,14.856,5.473,28.965,12.551,42.051c20.77,38.396,52.841,60.845,96.311,65.415
		c37.962,3.991,71.163-7.896,98.243-34.797c27.081-26.902,38.923-59.976,35.465-98.017c-3.139-34.536-18.866-62.594-45.897-84.269
		c-2.095-1.68-4.054-4.334-7.555-3.164c-0.545,0.182-1.419-0.5-2.1-0.86c-5.61-2.97-11.064-6.284-16.841-8.879
		c-16.362-7.349-33.574-10.868-51.536-10.259c-41.901,1.421-74.494,19.781-97.783,54.48C15.251,76.301,9.241,94.042,7.532,113.107
		c-0.622,6.936-0.419,13.946-0.628,20.921c-0.027,0.898-0.269,1.789-0.412,2.683c-0.395-0.017-0.79-0.035-1.184-0.052
		C5.093,132.189,4.877,127.72,4.662,123.25z"/>
	<path class="st1" d="M4.662,123.25c0.216,4.47,0.431,8.939,0.647,13.409c0.395,0.017,0.79,0.035,1.184,0.052
		c0.143-0.894,0.385-1.786,0.412-2.683c0.209-6.975,0.006-13.984,0.628-20.921c1.708-19.065,7.718-36.806,18.381-52.693
		c23.288-34.699,55.882-53.059,97.783-54.48c17.962-0.609,35.173,2.91,51.536,10.259c5.777,2.595,11.231,5.909,16.841,8.879
		c0.681,0.36,1.554,1.042,2.1,0.86c3.501-1.169,5.459,1.484,7.555,3.164c27.032,21.675,42.758,49.732,45.897,84.269
		c3.458,38.04-8.384,71.115-35.465,98.017c-27.08,26.901-60.28,38.788-98.243,34.797c-43.47-4.57-75.541-27.019-96.311-65.415
		c-7.079-13.086-11.23-27.195-12.551-42.051c-0.456-5.131-0.512-10.298-0.75-15.448C4.423,123.26,4.542,123.255,4.662,123.25z
		 M11.327,124.264c-0.151,10.826,1.448,21.324,4.346,31.694c3.203,11.464,8.313,21.99,14.843,31.875
		c0.346,0.524,0.983,0.859,1.49,1.275c1.312,1.078,2.749,2.035,3.914,3.253c2.603,2.721,4.938,5.707,7.619,8.343
		c8.516,8.372,17.938,15.505,28.551,21.109c14.909,7.873,30.808,12.13,47.537,12.842c27.511,1.172,52.482-6.265,74.361-23.314
		c17.337-13.509,29.446-30.748,36.641-51.467c3.731-10.744,5.617-21.852,6.024-33.194c0.347-9.667-0.087-19.307-2.278-28.774
		c-1.355-5.856-2.932-11.661-4.437-17.481c-0.681-2.634-1.026-5.453-2.216-7.843c-8.04-16.155-19.382-29.658-33.927-40.294
		c-20.451-14.956-43.371-22.475-68.831-22.277c-27.262,0.212-51.466,8.807-72.308,26.29C25.358,59.201,11.869,88.748,11.327,124.264
		z M242.345,115.768c-0.389,0.003-0.778,0.005-1.167,0.008c-0.103,1.297-0.294,2.593-0.296,3.89
		c-0.032,16.978-2.674,33.448-9.393,49.15c-8.405,19.645-21.241,35.776-38.499,48.337c-15.187,11.054-32.102,17.959-50.731,20.606
		c-13.266,1.885-26.466,1.562-39.612-1.028c-14.095-2.777-27.162-8.135-39.383-15.633c-1.761-1.08-3.562-2.095-5.344-3.14
		c-0.154,0.183-0.307,0.365-0.461,0.548c0.718,0.905,1.271,2.05,2.181,2.677c7.811,5.387,15.892,10.335,24.837,13.634
		c30.506,11.251,60.695,10.349,90.345-2.986c16.526-7.432,30.419-18.396,42.011-32.401c7.892-9.534,14.067-20.012,18.647-31.424
		c6.089-15.171,8.554-31.015,7.889-47.335C243.3,119.026,242.698,117.402,242.345,115.768z"/>
	<path class="st1" d="M11.327,124.264c0.542-35.516,14.031-65.063,41.329-87.962c20.841-17.483,45.046-26.078,72.308-26.29
		c25.46-0.198,48.38,7.322,68.831,22.277c14.545,10.636,25.886,24.139,33.927,40.294c1.19,2.39,1.535,5.209,2.216,7.843
		c1.505,5.82,3.082,11.625,4.437,17.481c2.191,9.466,2.624,19.107,2.278,28.774c-0.407,11.342-2.293,22.45-6.024,33.194
		c-7.195,20.719-19.304,37.957-36.641,51.467c-21.879,17.049-46.85,24.486-74.361,23.314c-16.729-0.713-32.628-4.969-47.537-12.842
		c-10.613-5.604-20.035-12.737-28.551-21.109c-2.682-2.636-5.016-5.622-7.619-8.343c-1.165-1.218-2.603-2.175-3.914-3.253
		c-0.507-0.417-1.144-0.751-1.49-1.275c-6.53-9.885-11.64-20.411-14.843-31.875C12.775,145.588,11.176,135.09,11.327,124.264z
		 M44.308,180.63c0.911,0.429,1.821,0.857,2.732,1.286c-0.006-1.055-0.01-2.109-0.025-3.164c-0.001-0.071-0.083-0.141-0.128-0.212
		c-0.429-0.563-0.859-1.125-1.225-1.605c-1.826,1.313-3.402,2.446-5.088,3.658c0.225,0.4,0.504,0.897,0.622,1.108
		C42.362,181.3,43.335,180.965,44.308,180.63z M224.84,91.941l0.04,0.108c-0.595-2.102-1.19-4.204-1.699-6
		c-2.858,1.582-5.395,2.986-8.201,4.539c0.635,1.182,1.26,2.346,1.886,3.509c0.24,0.628,0.48,1.256,0.72,1.884
		c0.506,1.165,0.748,2.599,1.588,3.424c0.94,0.923,2.624,2.002,3.616,1.72c1.169-0.332,2.575-1.965,2.745-3.19
		C225.8,96.006,225.12,93.946,224.84,91.941z M208.157,124.234c0.202-9.206-0.913-17.961-4.045-26.224
		c-3.246-8.563-7.281-16.828-10.985-25.216c-0.171-0.386-0.482-0.711-0.733-1.061c-5.661-7.898-12.328-14.783-20.367-20.301
		c-13.115-9.002-27.594-14.073-43.495-14.677c-21.134-0.803-40.135,5.31-56.837,18.328c-13.548,10.56-23.17,24.036-28.718,40.244
		c-5.474,15.992-6.141,32.273-1.161,48.546c1.324,4.326,3.301,8.466,5.188,12.596c0.478,1.047,1.973,1.587,2.637,2.599
		c3.717,5.661,6.751,11.873,11.062,17.024c20.911,24.985,47.87,34.772,79.798,29.258C179.441,198.625,208.6,163.665,208.157,124.234
		z M30.02,134.477c-1.657,0.34-3.013,0.329-4.038,0.906c-1.108,0.624-1.75,2.202-2.876,2.638c-1.809,0.7-1.114,1.621-0.608,2.542
		c0.958,1.743,2.521,2.568,4.506,2.407c2.175-0.176,3.728-1.297,4.426-3.392C32.129,137.477,31.574,135.706,30.02,134.477z
		 M228.615,138.607c-0.885-1.094-1.622-2.917-2.686-3.133c-2.43-0.494-7.508,3.285-7.379,4.964c0.142,1.839,2.462,3.548,4.742,3.493
		C226.027,143.867,228.174,141.677,228.615,138.607z M45.725,71.689c-0.177-0.164-0.353-0.329-0.53-0.493
		c-2,3.469-7.47,1.91-8.614,6.696c-0.905-0.58-1.575-1.01-2.193-1.406c-1.157,0.943-2.195,1.789-2.877,2.345
		c2.578,1.494,5.211,3.019,7.883,4.567c0.385-0.841,0.987-2.157,1.461-3.192c-1.262-0.87-2.408-1.66-4.202-2.897
		c2.715-0.877,4.572-1.478,6.429-2.078c0.084,0.205,0.168,0.41,0.253,0.615C44.131,74.46,44.928,73.074,45.725,71.689z
		 M87.518,30.778c-0.631-1.446-1.068-2.45-1.485-3.405c-0.97,0.558-1.827,1.051-2.707,1.557c0.934,2.587,1.897,5.25,2.882,7.978
		c1.251-0.548,2.804-1.228,3.79-1.66c-0.85-1.278-1.672-2.513-2.494-3.748c0.224-0.257,0.449-0.514,0.673-0.772
		c1.015,0.355,2.031,0.711,3.259,1.14c-0.433-0.969-0.831-1.861-1.15-2.574C89.347,29.799,88.508,30.248,87.518,30.778z
		 M44.222,58.198c2.595,0.726,6.352,4.622,6.395,6.728c0.69-0.912,1.336-1.768,1.842-2.437c-3.182,0.197-3.766-2.845-5.741-3.967
		c0.06-0.207,0.12-0.414,0.18-0.621c3.763-0.512,7.525-1.025,11.383-1.55c-0.803-1.756-1.732-1.978-3.511-1.481
		C51.209,55.865,47.202,55.358,44.222,58.198z M33.891,97.71c-0.576-0.848-1.114-1.64-1.647-2.426
		c-2.631,2.771-8.094,1.756-8.559,6.976c2.616,0.942,5.343,1.924,8.113,2.921c0.035-0.189,0.165-0.888,0.192-1.036
		c-2.591-0.817-4.889-1.541-7.187-2.266c-0.015-0.199-0.03-0.398-0.045-0.597C27.687,100.137,30.615,98.991,33.891,97.71z
		 M64.326,50.572c-1.779-2.255-3.448-4.37-5.09-6.451c-1.021,0.603-1.932,1.14-2.746,1.621c1.011,2.74,4.508,4.17,4.565,7.749
		C62.076,52.58,63.203,51.574,64.326,50.572z M28.439,88.215c2.906,1.429,5.098,2.507,7.395,3.637
		c0.439-1.25,0.87-2.478,1.212-3.454c-1.551-0.44-2.832-0.593-3.905-1.147c-3.237-1.671-3.206-1.732-5.473,1.381
		c0.701,1.16,1.434,2.374,2.168,3.587c0.132-0.079,0.264-0.159,0.396-0.238C29.74,90.95,29.25,89.919,28.439,88.215z M101.976,31.47
		c-0.819-2.862-1.617-5.649-2.451-8.561c-1.016,0.495-1.875,0.914-2.65,1.292c0.639,2.823,1.233,5.446,1.839,8.119
		C99.801,32.036,101.126,31.691,101.976,31.47z M116.116,28.967c-0.4-3.249-0.768-6.246-1.137-9.238
		c-1.026,0.577-1.896,1.067-2.832,1.594c0.274,2.614,0.551,5.252,0.843,8.032C114.074,29.221,115.331,29.065,116.116,28.967z
		 M143.82,30.383c1.629,0.114,4.021,0.602,4.735-1.781c0.72-2.402-1.727-2.949-3.374-3.767c-0.152-0.075-0.397-0.045-0.485-0.155
		c-0.945-1.182-1.868-2.382-2.803-3.585c-0.337,0.389-1.044,1.206-2.081,2.403c1.574,1.123,3.107,2.141,4.547,3.276
		c0.756,0.596,1.348,1.399,2.014,2.109C145.509,29.391,144.644,29.899,143.82,30.383z M168.94,29.602
		c0.441,3.246,0.858,6.323,1.306,9.622c1.938-1.265,3.761-2.455,5.583-3.645c-0.068-0.105-0.135-0.211-0.203-0.316
		c-0.958,0.439-1.916,0.878-3.044,1.395c-0.329-2.635-0.621-4.98-0.92-7.377C170.59,29.408,169.867,29.493,168.94,29.602z
		 M214.869,69.52c-0.628,5.115-1.221,9.94-1.806,14.71c1.531-0.89,3.458-2.01,5.386-3.131c-0.082-0.144-0.164-0.287-0.246-0.431
		c-0.854,0.318-1.707,0.635-2.589,0.963C214.997,77.614,218.088,73.513,214.869,69.52z M161.717,35.476
		c-0.983-3.744-1.875-7.143-2.816-10.727c-4.162,3.09,0.159,6.29-1.034,9.229C159.172,34.485,160.361,34.948,161.717,35.476z
		 M29.754,108.832c-0.46-0.152-0.919-0.304-1.379-0.455c-1.216,2.08-2.359,4.207-3.673,6.223c-0.92,1.411-2.075,2.669-3.331,4.256
		c0.806,1.627,1.78,1.804,3.026-0.168c0.864-1.367,1.37-2.957,2.121-4.402c0.585-1.126,1.302-2.183,1.96-3.271
		c0.31,0.091,0.62,0.181,0.93,0.272c0.081,1.558,0.162,3.116,0.243,4.674c0.034-0.008,0.069-0.015,0.103-0.023
		C29.754,113.569,29.754,111.2,29.754,108.832z M102.35,27.096c3.851,3.584,4.24,3.706,7.393,2.387
		c-1.44-1.03-2.93-2.096-4.046-2.894c0.809-1.413,1.404-2.451,1.999-3.49c-1.167-0.351-2.334-0.703-3.737-1.125
		C105.302,25.593,105.048,26.271,102.35,27.096z M222.366,121.032c2.612-3.391,5.212-6.765,7.812-10.139
		c-0.202-0.261-0.405-0.523-0.607-0.784c-0.855,0.45-1.878,0.732-2.526,1.387c-1.136,1.147-1.828,2.818-3.093,3.737
		C221.729,116.847,221.91,118.825,222.366,121.032z M203.228,68.16c0.399,0.616,0.995,1.537,1.379,2.131
		c2.462-1.983,4.844-3.901,7.296-5.876c-0.406-0.498-1.092-1.338-1.674-2.051C207.904,64.29,205.697,66.116,203.228,68.16z
		 M71.233,33.896c-0.596,1.654-1.088,3.355-1.815,4.949c-0.93,2.038-0.357,3.795,1.841,3.989c1.877,0.166,3.817-0.382,5.729-0.614
		c-0.033-0.219-0.065-0.438-0.098-0.658C72.559,41.865,70.458,38.818,71.233,33.896z M204.773,54.874
		c-0.244-0.018-0.487-0.035-0.731-0.053c-0.233,2.027-0.973,3.313-3.29,2.678c-0.418-0.115-1.25,0.183-1.447,0.537
		c-1.171,2.104-0.373,5.049,1.801,6.563c0-1.993,0-3.864,0-5.245c1.477-0.182,3.431,0.055,3.766-0.573
		C205.406,57.781,204.861,56.205,204.773,54.874z M190.904,41.653c-3.329,1.612-1.913,4.606-2.838,6.721
		c-0.304,0.696-0.322,1.517-0.543,2.657c0.558,0.489,1.461,1.281,2.666,2.338C190.445,49.175,190.666,45.552,190.904,41.653z
		 M175.263,42.169c0.552,0.348,1.537,0.968,2.119,1.335c1.619-2.84,3.157-5.539,4.681-8.213c-2.019-0.674-2.258-0.565-3.321,1.233
		C177.661,38.352,176.516,40.142,175.263,42.169z M199.496,49.437c-1.178,1.341-2.146,2.541-3.219,3.637
		c-0.999,1.021-2.11,1.931-3.274,2.982c0.564,0.61,1.296,1.401,1.833,1.981c2.176-2.407,4.232-4.682,6.346-7.02
		C200.745,50.608,200.191,50.089,199.496,49.437z M131.101,20.547c-1.527,3.167-2.701,5.603-3.876,8.04
		c0.252,0.125,0.504,0.25,0.756,0.375c1.683-3.168,3.365-6.336,5.048-9.504c-2.929,1.519-6.616-1.484-9.064,1.639
		C126.203,20.924,128.199,20.77,131.101,20.547z M207.067,183.22c-2.693,0.685-3.974-3.377-6.747-1.244
		c1.499,1.385,2.981,2.753,4.547,4.199C205.533,185.28,206.192,184.395,207.067,183.22z M132.31,218.818
		c2.464,1.654,4.672,3.137,7.077,4.751c-0.173-2.943-4.4-5.588-7.355-4.982c0,1.008,0,2.006,0,3.005
		c0.093-0.004,0.186-0.007,0.279-0.011C132.31,220.838,132.31,220.095,132.31,218.818z M199.809,191.92
		c-2.317-0.38-2.745-4.493-5.967-2.318c1.353,1.573,2.628,3.056,3.939,4.581C198.335,193.565,198.899,192.935,199.809,191.92z
		 M143.876,216.347c-3.228,1.731-0.271,4.276-1.383,6.389c1.217-0.186,2.109-0.323,2.817-0.431
		C144.818,220.26,144.363,218.371,143.876,216.347z M190.154,201.109c0.641-0.574,1.304-1.169,1.907-1.709
		c-1.252-1.418-2.376-2.691-3.517-3.983c-0.638,0.338-1.205,0.638-1.854,0.982C187.844,197.967,188.947,199.468,190.154,201.109z
		 M153.006,220.415c-0.657-1.953-1.265-3.759-1.904-5.657c-3.369,2.047,0.337,4.262-1.009,6.54
		C151.466,220.882,152.259,220.641,153.006,220.415z M162.944,217.109c-1.941-3.106-4.005-4.238-6.164-3.646
		c1.307,1.377,2.681,2.823,4.198,4.422C161.313,217.753,162.026,217.472,162.944,217.109z M68.383,199.893
		c-2.508,3.076-2.273,6.745,0,7.528C68.383,205.091,68.383,202.729,68.383,199.893z M79.882,206.871
		c-1.987-1.145-4.54-0.748-5.706,1.819c-1.174,2.584,1.382,3.144,2.244,3.884c-0.062-1.18-0.706-3.024-0.059-4.071
		C76.995,207.477,78.943,207.262,79.882,206.871z M169.977,206.84c-0.217,1.696-1.224,4.007-0.484,4.958
		c1.444,1.854,3.636,0.689,5.772-0.488C171.535,211.858,170.401,210.706,169.977,206.84z M126.021,224.796
		c0.115-0.211,0.23-0.422,0.345-0.634c-4.51-0.346-1.447-4.283-3.511-6.809c-0.372,2.498-1.071,4.388-0.704,6.043
		C122.309,224.113,124.664,224.344,126.021,224.796z M34.618,156.025c-3.139,1.48-4.816,5.131-3.831,7.262
		C32.082,160.831,33.35,158.428,34.618,156.025z M118.458,217.716c-3.546,0.721-0.955,4.172-2.628,5.705
		c-0.058,0.053,0.058,0.295,0.111,0.531c0.727,0,1.464,0,2.234,0C118.272,221.791,118.365,219.762,118.458,217.716z
		 M113.525,221.638c-0.752-1.294-1.26-2.318-1.917-3.235c-0.314-0.437-0.912-0.67-1.381-0.995c-0.113,0.542-0.454,1.162-0.299,1.61
		c0.518,1.494,1.214,2.925,1.971,4.679C112.708,222.672,113.323,221.894,113.525,221.638z M217.631,165.71
		c0.447-1.069,0.855-2.046,1.166-2.79c-2.301-0.33-4.352-0.624-6.402-0.918c-0.038,0.243-0.076,0.485-0.114,0.728
		C213.996,163.685,215.71,164.64,217.631,165.71z M99.848,219.426c-0.721-1.925-1.326-3.54-2.099-5.601
		c-2.335,2.777,0.587,4.711-0.171,7.524C98.815,220.301,99.377,219.825,99.848,219.426z M37.84,176.902
		c1.881-1.34,3.634-2.59,5.464-3.894c-0.463-0.567-0.822-1.006-1.038-1.271c-1.75,1.213-3.348,2.321-5.086,3.525
		C37.347,175.676,37.587,176.272,37.84,176.902z M38.137,164.198c-1.154,2.252-2.227,4.348-3.339,6.518
		c1.259,0.152,2.589,0.311,3.919,0.471c0.017-0.092,0.035-0.185,0.052-0.277c-0.582-0.257-1.164-0.513-1.681-0.741
		C37.105,168.003,40.08,166.429,38.137,164.198z M47.928,190.322c1.556-1.759,2.973-3.36,4.39-4.962
		c-0.16-0.261-0.319-0.521-0.479-0.782c-2.331,0.127-3.173,3.181-5.648,3.36C46.749,188.705,47.143,189.245,47.928,190.322z
		 M178.837,202.453c0.398,1.464-2.384,3.016-0.01,4.202c1.184,0.592,2.909,0.103,4.389,0.103c0.036-0.274,0.073-0.547,0.109-0.821
		C180.273,206.649,179.998,204.125,178.837,202.453z M87.955,210.732c-0.223-0.234-0.445-0.467-0.668-0.701
		c-1.357,1.221-3.075,2.247-3.893,3.76c-0.325,0.6,1.347,2.28,2.11,3.468C84.582,214.216,85.101,212.577,87.955,210.732z
		 M54.883,197.496c1.456-1.813,2.835-3.531,4.652-5.795c-3.314,0.187-3.693,3.607-6.214,3.95
		C54.096,196.566,54.636,197.205,54.883,197.496z M105.36,216.029c-0.271-0.092-0.542-0.185-0.813-0.277
		c-0.788,1.986-1.576,3.971-2.422,6.102c0.727,0.172,1.508,0.358,2.224,0.527C104.708,220.126,105.034,218.078,105.36,216.029z
		 M213.578,174.179c-1.676,0.123-2.839,0.272-4.001,0.27c-0.634-0.001-1.268-0.258-1.902-0.399
		c-0.093,0.524-0.441,1.325-0.231,1.518c0.576,0.529,1.573,1.278,2.069,1.084C210.867,176.122,212.049,175.152,213.578,174.179z
		 M59.321,197.756c3.267-0.267,3.347-0.354,2.329-2.492c-4.716,4.055-4.753,4.158-1.888,5.85
		C59.605,199.921,59.463,198.84,59.321,197.756z M78.927,37.204c0.086,1.204,0.163,2.276,0.251,3.494
		c1.069-0.875,2.159-1.768,3.256-2.666c-0.46-0.907-0.805-1.587-1.153-2.273C80.445,36.272,79.672,36.746,78.927,37.204z
		 M185.858,204.983c0.316-1.59,1.079-3.118,0.681-4.229c-0.267-0.746-2.18-0.902-3.473-1.363
		C184.013,201.289,184.791,202.845,185.858,204.983z M88.677,217.869c0.016,0.164,0.033,0.328,0.049,0.492
		c1.271-0.735,2.749-1.272,3.721-2.292c0.452-0.475-0.077-1.886-0.15-2.735C90.937,215.038,89.807,216.453,88.677,217.869z"/>
	<path class="st1" d="M242.345,115.768c0.354,1.634,0.955,3.258,1.023,4.903c0.665,16.32-1.801,32.164-7.889,47.335
		c-4.58,11.412-10.755,21.89-18.647,31.424c-11.592,14.005-25.486,24.969-42.011,32.401c-29.65,13.335-59.838,14.237-90.345,2.986
		c-8.944-3.299-17.026-8.246-24.837-13.634c-0.91-0.628-1.463-1.772-2.181-2.677c0.154-0.183,0.307-0.365,0.461-0.548
		c1.782,1.045,3.584,2.059,5.344,3.14c12.221,7.498,25.288,12.857,39.383,15.633c13.146,2.59,26.346,2.914,39.612,1.028
		c18.63-2.648,35.544-9.553,50.731-20.606c17.258-12.561,30.094-28.692,38.499-48.337c6.719-15.703,9.361-32.173,9.393-49.15
		c0.002-1.297,0.193-2.593,0.296-3.89C241.567,115.774,241.956,115.771,242.345,115.768z"/>
	<path class="st1" d="M208.157,124.234c0.444,39.431-28.716,74.39-67.656,81.115c-31.928,5.514-58.887-4.273-79.798-29.258
		c-4.311-5.151-7.345-11.363-11.062-17.024c-0.664-1.012-2.159-1.552-2.637-2.599c-1.887-4.13-3.864-8.27-5.188-12.596
		c-4.98-16.273-4.312-32.553,1.161-48.546c5.547-16.208,15.17-29.684,28.718-40.244c16.702-13.019,35.703-19.131,56.837-18.328
		c15.901,0.604,30.38,5.674,43.495,14.677c8.039,5.518,14.706,12.403,20.367,20.301c0.251,0.35,0.563,0.675,0.733,1.061
		c3.704,8.389,7.739,16.653,10.985,25.216C207.244,106.274,208.359,115.029,208.157,124.234z M138.768,73.995
		c2.106,1.204,4.118,3.051,6.646,0.69c0.294-0.274,1.146-0.139,1.657,0.041c2.48,0.871,1.627,2.549,0.639,4.231
		c0.247,0.094,0.494,0.188,0.741,0.282c0.776-1.091,1.553-2.181,2.33-3.272c-3.128-2.909-4.168-3.085-7.348-1.497
		c-0.396,0.198-0.972,0.103-1.453,0.047c-1.102-0.127-2.197-0.314-3.295-0.477c0.252-1.103,0.505-2.207,0.79-3.457
		c-1.241-0.322-2.464-0.627-3.678-0.959c-1.787-0.488-3.562-1.076-4.199,1.602c-0.076,0.321-0.897,0.596-1.402,0.657
		c-0.912,0.11-1.845,0.042-2.77,0.048c-0.308-1.049-0.615-2.099-0.981-3.348c-4.063-1.553-7.291-0.698-8.122,2.453
		c-0.372,0.042-0.8,0.174-1.203,0.12c-1.564-0.206-4.083,1.331-3.971-2.127c0.006-0.191-0.951-0.607-1.44-0.579
		c-1.108,0.062-2.203,0.479-3.306,0.494c-2.306,0.032-3.399,0.895-2.539,3.287c-1.999,0.913-3.834,2.491-5.678-0.082
		c-0.172-0.24-1.145-0.103-1.627,0.117c-1.088,0.497-2.194,1.042-3.109,1.792c-0.515,0.422-0.663,1.291-0.977,1.958
		c0.623-0.245,1.372-0.346,1.844-0.762c1.469-1.291,2.691-2.516,4.849-0.853c1.424,1.097,5.001-0.784,5.819-2.435
		c0.402-0.811,1.378-1.669,2.226-1.836c0.865-0.17,2.174,0.2,2.795,0.825c1.884,1.896,6.463,1.55,8.061-0.548
		c0.561-0.737,1.96-1.073,3-1.128c0.749-0.039,2.219,0.738,2.197,1.074c-0.131,2.016,1.418,1.154,2.235,1.498
		c1.663,1.138,3.597,1.954,5.037,0.123c1.947-2.477,3.459-1.058,5.241-0.196c-0.307,0.913-0.531,1.581-0.803,2.39
		C137.738,74.101,138.244,74.055,138.768,73.995z M88.107,167.665c1.313-0.522,2.589-1.355,3.945-1.516
		c7.42-0.878,14.466,0.164,20.595,4.816c3.003,2.279,5.96,4.635,8.792,7.122c2.825,2.481,2.949,2.575,5.646,0.059
		c0.315-0.294,0.626-0.592,0.945-0.882c8.642-7.859,18.07-13.583,30.491-11.461c0.918,0.157,1.964-0.435,2.95-0.679
		c-15.7-4.649-26.591,3.569-36.933,13.439c-10.114-9.658-20.918-17.536-35.975-13.757c-0.258,1.034-0.472,1.891-0.686,2.749
		c-1.169-1.937-1.858-4.471-5.21-4.222c1.24,3.74,3.899,6.711,3.861,11.119c-2.994-1.797-5.863-2.975-7.267-5.936
		c-0.883-1.861-1.817-3.755-2.3-5.738c-1.535-6.304-3.864-12.278-6.947-17.968c-0.192-0.355-0.702-0.538-1.377-1.028
		c0.685,5.53,1.321,10.663,1.957,15.796c-0.358,0.115-0.715,0.23-1.073,0.345c-0.939-1.347-2.248-2.572-2.738-4.067
		c-0.93-2.835-1.748-5.796-1.973-8.754c-0.495-6.523-0.578-13.076-0.877-19.615c-0.03-0.664-0.39-1.313-0.598-1.969
		c-0.228,0.037-0.455,0.074-0.683,0.111c-1.13,5.235-2.26,10.471-3.349,15.516c-2.1-4.482-2.389-9.286-0.736-14.384
		c2.172-6.697,4.009-13.503,5.991-20.261c-0.289-0.147-0.579-0.294-0.868-0.44c-2.496,3.951-4.992,7.903-7.425,11.755
		c-0.87-4.609,0.625-8.542,3.545-12.313c2.829-3.653,5.132-7.716,7.612-11.633c0.314-0.496,0.544-1.662,0.402-1.737
		c-1.707-0.899-0.56-1.987-0.128-2.803c0.633-1.199,1.46-2.341,2.391-3.331c4.472-4.755,8.569-9.999,13.626-14.033
		c6.753-5.387,14.083-10.223,22.918-11.756c5.975-1.037,11.967-2.473,17.983-2.651c6.134-0.181,12.309,0.951,18.464,1.526
		c1.453,0.136,2.949,0.162,4.338,0.55c3.267,0.912,6.486,1.996,9.711,3.051c0.535,0.175,0.993,0.574,1.505,0.832
		c3.733,1.88,7.463,3.769,11.221,5.6c0.424,0.207,1.09,0.229,1.519,0.046c0.798-0.341,2.17-0.983,2.123-1.346
		c-0.138-1.061-0.596-2.541-1.399-2.966c-2.083-1.1-2.712-3.857-5.228-4.342c-0.051-0.01-0.015-0.465-0.02-0.712l-0.103,0.101
		c0.792-0.518,1.527-1.287,2.392-1.483c0.853-0.193,2.518-0.033,2.651,0.365c0.773,2.314,3.217,1.997,4.879,3.232
		c0.15-0.942,0.13-1.912-0.362-2.44c-1.343-1.441-2.754-2.891-4.371-3.996c-21.113-14.436-44.167-18.233-68.789-11.83
		c-18.048,4.693-32.76,14.795-43.992,29.641c-13.695,18.103-19.137,38.496-15.77,61.064c0.278,1.864,1.161,3.51,3.214,4.318
		c1.372,0.54,2.767,1.319,3.811,2.34c2.938,2.87,5.336,6.429,8.618,8.78c4.778,3.423,7.307,8.415,10.748,12.799
		c-2.307-1.043-4.486-2.197-6.614-3.439c-2.143-1.251-4.418-2.371-6.297-3.951c-1.705-1.434-2.953-3.41-4.403-5.147
		c-0.241,0.151-0.482,0.301-0.723,0.452c0.603,1.32,1.142,2.673,1.818,3.954c4.641,8.785,11.488,14.857,21.525,16.402
		c5.458,0.84,9.127,4.446,13.305,7.537c-7.637-0.726-15.588-0.048-22.043-5.807c0.062,0.691,0.224,1.155,0.52,1.507
		c4.829,5.757,10.727,9.827,18.377,10.407c5.306,0.402,10.66,0.16,15.993,0.195c2.228,0.015,4.457,0.002,6.685,0.002
		c-7.923,1.532-14.958,7.278-23.652,4.839c2.437,1.25,4.913,2.07,7.39,2.887c4.619,1.523,9.242,1.341,13.627-0.61
		c3.049-1.357,5.891-3.207,8.746-4.965c2.955-1.819,5.87-2.619,9.289-1.134c1.097,0.477,2.71,0.242,3.936-0.146
		c3.352-1.06,6.415-0.879,9.331,1.209c1.398,1.001,2.903,1.851,4.362,2.766c8.812,5.532,17.498,3.447,25.626-0.032
		c-7.131-1.149-14.712-2.37-22.294-3.591c0.008-0.271,0.015-0.542,0.023-0.814c0.948-0.099,1.897-0.294,2.843-0.281
		c4.051,0.054,8.102,0.266,12.151,0.243c8.992-0.053,16.339-3.707,22.197-10.455c0.326-0.376,0.496-0.887,0.738-1.334
		c-2.261,1.186-4.261,2.786-6.51,3.306c-5.579,1.291-11.273,2.09-16.92,3.087c1.702-1.826,3.783-2.987,5.623-4.45
		c2.697-2.145,5.637-3.567,9.04-4.125c10.541-1.727,17.343-8.22,22.003-17.396c0.378-0.744,0.619-1.558,0.81-2.047
		c-2.918,2.405-5.726,5.045-8.862,7.21c-3.118,2.152-6.565,3.827-10.261,5.936c4.198-4.464,6.135-10.281,11.294-13.725
		c5.491-3.665,9.867-8.441,11.999-14.802c1.046-3.121,1.386-6.479,2.046-9.73c-0.34-0.098-0.68-0.196-1.02-0.294
		c-1.236,6.986-7.394,10.688-10.716,16.923c0.057-0.954,0.034-1.376,0.113-1.778c0.957-4.823,2.258-9.358,5.45-13.438
		c5.157-6.592,5.255-14.398,3.679-22.355c-1.915,5.958-3.83,11.916-5.745,17.874c0.002-5.739-1.715-11.564,0.755-17.323
		c1.873-4.367,1.695-8.958,0.611-13.459c-0.572-2.374-1.712-4.612-2.596-6.911c-0.256,0.098-0.512,0.196-0.768,0.295
		c0,5.198,0,10.396,0,15.594c-1.715-4.983-2.915-10.077-4.458-15.065c-0.931-3.01-2.029-6.099-3.75-8.688
		c-1.124-1.69-3.476-2.586-5.341-3.735c-0.289-0.178-0.957,0.128-1.369,0.356c-0.133,0.074-0.082,0.878,0.016,0.907
		c2.35,0.7,2.404,2.768,3.251,4.608c1.622,3.523,4.18,6.602,6.056,10.027c0.941,1.717,1.321,3.768,1.77,5.711
		c0.141,0.609-0.322,1.357-0.509,2.041c-0.605-0.476-1.307-0.869-1.796-1.443c-1.329-1.56-2.414-3.407-5.531-3.951
		c1.014,1.972,1.576,3.373,2.395,4.602c2.617,3.927,5.293,7.815,8.015,11.67c2.097,2.97,1.717,6.149,1.366,9.352
		c-0.224,0.079-0.448,0.159-0.673,0.238c-2.085-3.615-4.171-7.23-6.256-10.845c0.1,3.692,0.531,7.214,1.096,10.715
		c0.24,1.487,0.682,2.956,1.17,4.387c0.918,2.691,2.606,5.312,2.754,8.029c0.219,4.024-0.626,8.106-1.017,12.163
		c-0.24-0.008-0.479-0.017-0.719-0.025c-1.009-5.927-2.017-11.855-3.082-18.113c-0.409,0.714-1.058,1.346-1.116,2.028
		c-0.347,4.086-0.583,8.181-0.807,12.276c-0.201,3.686-0.028,7.422-0.578,11.051c-0.763,5.04-3.269,9.398-6.893,13.672
		c0.673-3.532,1.298-6.657,1.858-9.794c0.581-3.25,1.099-6.511,1.647-9.78c-0.179,0.023-0.417-0.018-0.492,0.074
		c-3.664,4.467-6.035,9.616-7.209,15.201c-1.67,7.945-6.014,14.161-13.208,18.053c2.332-4.606,4.664-9.212,6.996-13.818
		c-0.184-0.187-0.367-0.374-0.551-0.561c-0.888,0.661-1.874,1.224-2.646,1.999c-2.913,2.925-5.785,5.892-8.618,8.894
		c-2.881,3.053-6.101,5.616-10.211,6.719c-3.544,0.952-7.16,1.636-10.734,2.481c-0.546,0.129-1.036,0.492-1.597,0.769
		c-0.06-0.539-0.122-1.088-0.208-1.861c-0.951,0.409-1.807,0.624-2.484,1.096c-2.672,1.861-5.288,2.176-7.937-0.005
		c-0.503-0.414-0.995-0.941-1.583-1.125c-0.649-0.203-1.974-0.238-2.026-0.06c-0.748,2.567-2.551,1.524-3.969,1.131
		c-3.715-1.03-7.561-1.85-11.012-3.48c-2.583-1.22-5.133-2.746-7.033-5.333C93.34,171.764,90.521,169.863,88.107,167.665z
		 M80.992,131.201c0.171-0.32,0.247-0.584,0.416-0.757c0.924-0.951,2.41-1.685,1.329-3.397c-0.895-1.417-0.751-3.984-3.742-3.143
		c-0.509,0.143-1.627-1.033-2.051-1.822c-0.182-0.339,0.73-1.224,1.071-1.898c0.418-0.827,0.945-1.664,1.08-2.55
		c0.138-0.905,0.011-1.927-0.29-2.797c-0.227-0.653-0.889-1.594-1.401-1.623c-1.398-0.078-2.334-0.602-2.071-1.945
		c0.17-0.867,0.996-2.088,1.739-2.266c1.801-0.429,2.367-1.465,2.528-3.083c0.116-1.168,0.359-2.324,0.551-3.522
		c-0.25-0.064-0.492-0.17-0.74-0.182c-1.235-0.062-2.825,0.4-2.736-1.7c0.069-1.637,0.83-2.406,2.653-2.373
		c0.775,0.014,1.779-0.865,2.299-1.605c0.665-0.946,0.947-2.162,1.466-3.44c-0.696-0.211-1.284-0.389-2.009-0.609
		c0.853,2.991-0.475,4.619-3.167,4.387c-0.636-0.055-1.748,0.264-1.901,0.682c-0.591,1.613-0.882,3.336-1.285,5.018
		c0.287-0.131,0.573-0.262,0.86-0.394c1.095,0.78,2.973,1.44,3.115,2.366c0.267,1.733-0.395,3.578-3.084,3.156
		c-0.49-0.077-1.572,1.053-1.697,1.749c-0.266,1.473-0.081,3.027-0.081,4.502c4.482,0.513,4.546,0.597,4.103,3.985
		c-1.339,1.172-2.928,1.914-2.95,2.699c-0.08,2.837,1.289,4.484,3.439,4.356c2.889-0.172,3.063,1.773,3.514,3.683
		c-1.11,0.568-2.113,1.081-3.144,1.609c2.621,4.099,2.621,4.099,7,4.24c-2.564,0.319-5.128,0.639-7.95,0.99
		c2.598,7.649,5.073,14.937,7.493,22.063c1.646-0.356,3.11-0.775,4.603-0.979c13.031-1.779,22.966,4.541,32.038,12.655
		c1.643,1.469,2.322,1.122,3.52,0.077c0.52-0.453,1.021-0.927,1.548-1.371c9.612-8.094,20.098-13.697,33.261-11.59
		c1.465,0.235,2.191-0.332,2.642-1.741c1.288-4.019,2.637-8.022,4.087-11.986c0.906-2.476,2.039-4.868,3.147-7.478
		c-1.039-0.232-2.576-0.575-4.254-0.95c0.691-1.289,1.327-2.475,2.039-3.804c-0.797-0.248-1.498-0.467-1.601-0.499
		c-0.904,1.487-1.361,3.268-2.35,3.641c-1.784,0.673-3.882,0.574-5.856,0.676c-9.643,0.501-18.061,4.107-25.41,10.214
		c-3.007,2.499-5.703,5.37-8.598,8.126c-0.762-0.813-1.529-1.622-2.287-2.44c-7.344-7.925-16.133-13.212-26.878-15.216
		c-2.976-0.555-6.455,0.668-8.909-2.167c-0.14-0.162-0.73-0.131-0.976,0.025C82.963,134.134,82.079,132.498,80.992,131.201z
		 M153.381,123.447c-0.247-2.125-0.345-3.719-0.629-5.28c-0.787-4.315-1.398-8.687-2.573-12.898
		c-0.831-2.976-1.774-6.493-3.895-8.414c-3.969-3.596-8.714-6.399-13.348-9.178c-5.232-3.139-10.602-0.927-12.77,4.849
		c-0.463,1.233-1.186,2.367-1.789,3.547c-0.287-0.092-0.574-0.185-0.861-0.277c-0.06-0.724-0.129-1.448-0.179-2.172
		c-0.219-3.17-0.163-6.444-2.272-9.099c-1.496-1.883-3.154-3.645-4.823-5.379c-1.942-2.018-4.307-2.039-6.359-0.208
		c-1.472,1.313-2.986,2.579-4.462,3.887c-2.749,2.435-5.096,5.003-5.163,9.083c-0.042,2.539-0.78,5.063-1.147,7.602
		c-1.33,9.203-2.68,18.403-3.927,27.617c-0.486,3.593,1.053,5.564,4.586,6.142c5.686,0.931,11.379,1.823,17.078,2.676
		c1.872,0.28,3.518-0.042,4.808-1.756c0.507-0.674,1.704-1.177,2.582-1.169c7.492,0.071,14.983,0.315,22.475,0.428
		c4.654,0.07,9.312,0.087,13.964-0.029c4.198-0.104,5.912-2.064,4.699-5.629c-0.456-1.338-1.964-2.432-3.204-3.35
		C155.328,123.817,154.116,123.692,153.381,123.447z M162.538,161.073c-8.122-3.432-21.072-3.407-38.068,12.872
		c-3.787-2.832-7.447-5.809-11.353-8.42c-3.853-2.576-7.913-4.819-12.681-5.425c-4.702-0.597-9.345-0.711-14.208,0.45
		c0.404,0.898,0.671,1.491,0.862,1.917c5.918-1.392,11.664-1.415,17.219,0.433c6.733,2.239,12.256,6.589,17.336,11.39
		c1.994,1.885,3.307,1.6,4.933-0.107c0.533-0.559,1.16-1.027,1.74-1.542c8.92-7.922,18.819-13.077,31.266-11.197
		C160.529,161.588,161.552,161.21,162.538,161.073z M156.345,85.41c1.136,1.226,2.099,2.419,3.231,3.419
		c0.508,0.449,1.473,0.872,2.03,0.69c2.896-0.946,3.507,0.54,3.509,2.888c-0.841,0.524-1.602,0.999-2.878,1.795
		c1.614,1.646,2.818,3.955,4.357,4.205c2.781,0.453,2.814,1.77,2.66,3.745c-3.689,0.877-3.689,0.877-2.022,6.575
		c3.996,1.139,4.075,1.264,2.829,4.469c-3.176,0.278-3.552,1.091-3.044,6.375c0.991,0.576,1.899,1.105,2.819,1.64
		c-0.47,1.239-0.824,2.169-1.144,3.012c-3.49-0.236-5.072,1.706-4.803,5.853c0.438-0.515,0.869-0.807,0.983-1.192
		c0.584-1.976,1.102-3.848,3.904-3.444c0.484,0.07,1.37-0.952,1.665-1.643c0.518-1.214,0.724-2.562,1.055-3.833
		c-0.376-0.183-0.595-0.35-0.838-0.397c-1.204-0.23-2.739,0.058-2.639-1.971c0.083-1.681,0.367-2.995,2.501-3.205
		c0.566-0.056,1.306-1.214,1.457-1.968c0.244-1.219,0.066-2.523,0.066-3.867c-1.313-0.158-2.668,0.037-3.577-0.509
		c-1.644-0.987-1.084-3.901,0.844-4.611c2.814-1.037,1.567-3.084,1.16-4.749c-0.156-0.638-1.538-1.602-2.006-1.433
		c-2.778,1.001-3.137-1.063-3.985-2.606c2.952-3.331,2.889-3.286,0.881-6.066c-1.537-2.129-2.847-0.209-4.374,0.088
		c-0.889-0.817-1.826-1.678-2.924-2.686c0.738-1.014,1.427-1.959,2.214-3.041c-1.031-0.96-2.028-2.022-3.17-2.893
		c-0.535-0.408-1.383-0.695-2.031-0.608c-1.596,0.213-3.16,0.675-5.317,1.17c1.55,0.305,2.976,1.012,4.179,0.738
		c2.798-0.638,3.287-0.546,4.394,2.466C157.701,84.32,157.058,84.837,156.345,85.41z M96.42,76.491
		c-1.082,2.442-3.09,3.855-4.514,2.942c-1.545-0.991-2.731-1.269-4.02,0.215c-0.996,1.146-2.039,2.252-3.061,3.376
		c0.241,0.251,0.483,0.502,0.724,0.753c0.549-0.47,1.185-0.87,1.631-1.422c1.227-1.519,2.267-2.966,4.678-1.75
		c1.611,0.813,5.041-1.607,5.269-3.449C97.149,76.975,96.688,76.733,96.42,76.491z M78.95,92.793
		c0.681-0.617,1.232-0.873,1.349-1.261c0.666-2.201,1.744-3.414,4.315-2.613c0.54,0.168,1.568-0.574,2.091-1.151
		c0.891-0.982,1.561-2.165,2.442-3.434c-0.703-0.221-1.207-0.38-1.76-0.554c-0.156,2.459-1.821,4.27-3.438,3.944
		C80.8,87.091,78.917,88.799,78.95,92.793z"/>
	<path class="st1" d="M30.02,134.477c1.555,1.229,2.109,3.001,1.41,5.101c-0.698,2.095-2.251,3.216-4.426,3.392
		c-1.985,0.16-3.547-0.664-4.506-2.407c-0.506-0.921-1.201-1.841,0.608-2.542c1.126-0.436,1.768-2.014,2.876-2.638
		C27.007,134.805,28.362,134.816,30.02,134.477z"/>
	<path class="st1" d="M228.615,138.607c-0.44,3.07-2.587,5.26-5.322,5.325c-2.281,0.054-4.6-1.655-4.742-3.493
		c-0.13-1.679,4.949-5.458,7.379-4.964C226.992,135.69,227.729,137.513,228.615,138.607z"/>
	<path class="st1" d="M217.585,95.982c-0.24-0.628-0.48-1.256-0.72-1.884c0.237-0.674,0.28-1.706,0.745-1.959
		c1.903-1.034,3.935-1.83,5.986-2.744c0.485,1.004,0.884,1.83,1.283,2.655c0,0-0.04-0.108-0.04-0.108
		c0.024,0.595,0.058,1.19,0.069,1.785c0.04,2.124-0.912,3.594-2.938,4.282C219.891,98.716,218.538,97.759,217.585,95.982z"/>
	<path class="st1" d="M45.725,71.689c-0.797,1.386-1.594,2.771-2.391,4.157c-0.084-0.205-0.168-0.41-0.253-0.615
		c-1.857,0.6-3.714,1.2-6.429,2.078c1.794,1.236,2.94,2.026,4.202,2.897c-0.474,1.036-1.076,2.352-1.461,3.192
		c-2.671-1.548-5.305-3.074-7.883-4.567c0.682-0.556,1.721-1.402,2.877-2.345c0.618,0.396,1.288,0.826,2.193,1.406
		c1.144-4.786,6.614-3.227,8.614-6.696C45.372,71.36,45.548,71.524,45.725,71.689z"/>
	<path class="st1" d="M87.518,30.778c0.99-0.53,1.829-0.979,2.768-1.482c0.318,0.713,0.717,1.605,1.15,2.574
		c-1.228-0.43-2.243-0.785-3.259-1.14c-0.224,0.257-0.449,0.514-0.673,0.772c0.822,1.235,1.643,2.47,2.494,3.748
		c-0.986,0.432-2.539,1.112-3.79,1.66c-0.986-2.728-1.948-5.392-2.882-7.978c0.88-0.506,1.737-0.999,2.707-1.557
		C86.449,28.329,86.887,29.332,87.518,30.778z"/>
	<path class="st1" d="M44.222,58.198c2.979-2.84,6.987-2.333,10.548-3.328c1.779-0.497,2.708-0.275,3.511,1.481
		c-3.858,0.525-7.62,1.037-11.383,1.55c-0.06,0.207-0.12,0.414-0.18,0.621c1.975,1.122,2.559,4.163,5.741,3.967
		c-0.506,0.669-1.152,1.525-1.842,2.437C50.574,62.821,46.817,58.924,44.222,58.198z"/>
	<path class="st1" d="M33.891,97.71c-3.276,1.282-6.204,2.427-9.132,3.573c0.015,0.199,0.03,0.398,0.045,0.597
		c2.298,0.724,4.595,1.449,7.187,2.266c-0.027,0.148-0.157,0.847-0.192,1.036c-2.77-0.997-5.498-1.979-8.113-2.921
		c0.465-5.22,5.928-4.204,8.559-6.976C32.777,96.069,33.315,96.861,33.891,97.71z"/>
	<path class="st1" d="M64.326,50.572c-1.123,1.002-2.25,2.008-3.271,2.919c-0.057-3.579-3.554-5.009-4.565-7.749
		c0.814-0.48,1.725-1.018,2.746-1.621C60.879,46.202,62.547,48.317,64.326,50.572z"/>
	<path class="st1" d="M28.439,88.215c0.811,1.704,1.302,2.735,1.792,3.767c-0.132,0.079-0.264,0.159-0.396,0.238
		c-0.733-1.214-1.467-2.427-2.168-3.587c2.267-3.113,2.236-3.052,5.473-1.381c1.073,0.554,2.354,0.707,3.905,1.147
		c-0.342,0.975-0.773,2.204-1.212,3.454C33.536,90.722,31.345,89.644,28.439,88.215z"/>
	<path class="st1" d="M101.976,31.47c-0.85,0.221-2.174,0.566-3.262,0.85c-0.605-2.673-1.199-5.295-1.839-8.119
		c0.775-0.378,1.634-0.797,2.65-1.292C100.358,25.82,101.156,28.607,101.976,31.47z"/>
	<path class="st1" d="M116.116,28.967c-0.786,0.098-2.042,0.254-3.125,0.388c-0.292-2.78-0.569-5.418-0.843-8.032
		c0.936-0.527,1.806-1.017,2.832-1.594C115.348,22.722,115.717,25.719,116.116,28.967z"/>
	<path class="st1" d="M143.82,30.383c0.825-0.484,1.689-0.992,2.554-1.499c-0.666-0.71-1.259-1.513-2.014-2.109
		c-1.44-1.135-2.973-2.153-4.547-3.276c1.037-1.198,1.744-2.014,2.081-2.403c0.935,1.203,1.857,2.403,2.803,3.585
		c0.088,0.11,0.333,0.079,0.485,0.155c1.647,0.819,4.094,1.365,3.374,3.767C147.84,30.984,145.449,30.496,143.82,30.383z"/>
	<path class="st1" d="M168.94,29.602c0.927-0.109,1.65-0.194,2.722-0.321c0.299,2.398,0.591,4.742,0.92,7.377
		c1.128-0.517,2.086-0.956,3.044-1.395c0.068,0.105,0.135,0.211,0.203,0.316c-1.822,1.19-3.645,2.379-5.583,3.645
		C169.798,35.925,169.381,32.848,168.94,29.602z"/>
	<path class="st1" d="M214.869,69.52c3.218,3.993,0.127,8.095,0.745,12.111c0.882-0.328,1.735-0.646,2.589-0.963
		c0.082,0.144,0.164,0.287,0.246,0.431c-1.927,1.12-3.855,2.241-5.386,3.131C213.649,79.46,214.241,74.635,214.869,69.52z"/>
	<path class="st1" d="M224.88,92.05c-0.399-0.826-0.798-1.651-1.283-2.655c-2.051,0.913-4.083,1.71-5.986,2.744
		c-0.466,0.253-0.508,1.285-0.745,1.959c-0.625-1.163-1.25-2.327-1.886-3.509c2.806-1.553,5.343-2.957,8.201-4.539
		C223.69,87.846,224.285,89.948,224.88,92.05z"/>
	<path class="st1" d="M161.717,35.476c-1.356-0.528-2.545-0.99-3.85-1.498c1.193-2.939-3.128-6.139,1.034-9.229
		C159.842,28.332,160.734,31.732,161.717,35.476z"/>
	<path class="st1" d="M29.754,108.832c0,2.368,0,4.737,0,7.105c-0.034,0.008-0.069,0.015-0.103,0.023
		c-0.081-1.558-0.162-3.116-0.243-4.674c-0.31-0.091-0.62-0.181-0.93-0.272c-0.658,1.088-1.375,2.145-1.96,3.271
		c-0.751,1.446-1.257,3.035-2.121,4.402c-1.246,1.972-2.22,1.795-3.026,0.168c1.256-1.587,2.411-2.845,3.331-4.256
		c1.314-2.015,2.457-4.143,3.673-6.223C28.834,108.528,29.294,108.68,29.754,108.832z"/>
	<path class="st1" d="M217.585,95.982c0.953,1.778,2.306,2.735,4.386,2.028c2.026-0.689,2.978-2.158,2.938-4.282
		c-0.011-0.595-0.046-1.19-0.069-1.785c0.28,2.005,0.96,4.065,0.694,5.994c-0.169,1.225-1.576,2.858-2.745,3.19
		c-0.992,0.282-2.676-0.797-3.616-1.72C218.333,98.581,218.091,97.147,217.585,95.982z"/>
	<path class="st1" d="M102.35,27.096c2.697-0.825,2.952-1.503,1.609-5.122c1.402,0.422,2.569,0.774,3.737,1.125
		c-0.595,1.038-1.189,2.077-1.999,3.49c1.115,0.798,2.606,1.864,4.046,2.894C106.591,30.802,106.202,30.68,102.35,27.096z"/>
	<path class="st1" d="M222.366,121.032c-0.456-2.208-0.638-4.185,1.586-5.799c1.265-0.918,1.956-2.59,3.093-3.737
		c0.648-0.654,1.672-0.937,2.526-1.387c0.202,0.261,0.405,0.523,0.607,0.784C227.579,114.268,224.979,117.642,222.366,121.032z"/>
	<path class="st1" d="M203.228,68.16c2.469-2.044,4.675-3.87,7.002-5.796c0.581,0.712,1.268,1.553,1.674,2.051
		c-2.453,1.975-4.834,3.893-7.296,5.876C204.224,69.697,203.627,68.776,203.228,68.16z"/>
	<path class="st1" d="M71.233,33.896c-0.775,4.922,1.326,7.969,5.657,7.666c0.033,0.219,0.065,0.438,0.098,0.658
		c-1.912,0.232-3.852,0.78-5.729,0.614c-2.197-0.194-2.77-1.95-1.841-3.989C70.145,37.251,70.637,35.549,71.233,33.896z"/>
	<path class="st1" d="M204.773,54.874c0.089,1.332,0.633,2.907,0.1,3.907c-0.335,0.628-2.289,0.391-3.766,0.573
		c0,1.381,0,3.252,0,5.245c-2.174-1.514-2.972-4.459-1.801-6.563c0.197-0.354,1.029-0.652,1.447-0.537
		c2.317,0.635,3.057-0.651,3.29-2.678C204.285,54.838,204.529,54.856,204.773,54.874z"/>
	<path class="st1" d="M190.904,41.653c-0.238,3.898-0.459,7.522-0.715,11.715c-1.205-1.057-2.109-1.849-2.666-2.338
		c0.222-1.14,0.239-1.961,0.543-2.657C188.99,46.26,187.575,43.265,190.904,41.653z"/>
	<path class="st1" d="M175.263,42.169c1.253-2.027,2.398-3.817,3.479-5.645c1.063-1.798,1.302-1.908,3.321-1.233
		c-1.524,2.674-3.062,5.373-4.681,8.213C176.799,43.137,175.815,42.517,175.263,42.169z"/>
	<path class="st1" d="M199.496,49.437c0.695,0.651,1.249,1.17,1.687,1.581c-2.114,2.338-4.17,4.613-6.346,7.02
		c-0.537-0.58-1.269-1.371-1.833-1.981c1.163-1.051,2.275-1.961,3.274-2.982C197.351,51.978,198.318,50.779,199.496,49.437z"/>
	<path class="st1" d="M131.101,20.547c-2.902,0.223-4.898,0.377-7.135,0.549c2.448-3.122,6.134-0.12,9.064-1.639
		c-1.683,3.168-3.365,6.336-5.048,9.504c-0.252-0.125-0.504-0.25-0.756-0.375C128.4,26.15,129.574,23.714,131.101,20.547z"/>
	<path class="st1" d="M207.067,183.22c-0.875,1.175-1.534,2.061-2.2,2.955c-1.566-1.446-3.047-2.814-4.547-4.199
		C203.093,179.843,204.374,183.905,207.067,183.22z"/>
	<path class="st1" d="M132.31,218.818c0,1.277,0,2.02,0,2.763c-0.093,0.004-0.186,0.007-0.279,0.011c0-0.999,0-1.997,0-3.005
		c2.955-0.606,7.182,2.038,7.355,4.982C136.982,221.954,134.774,220.472,132.31,218.818z"/>
	<path class="st1" d="M199.809,191.92c-0.91,1.016-1.474,1.645-2.028,2.263c-1.311-1.525-2.586-3.008-3.939-4.581
		C197.065,187.427,197.493,191.539,199.809,191.92z"/>
	<path class="st1" d="M143.876,216.347c0.487,2.023,0.942,3.913,1.434,5.958c-0.708,0.108-1.6,0.245-2.817,0.431
		C143.605,220.624,140.649,218.078,143.876,216.347z"/>
	<path class="st1" d="M190.154,201.109c-1.207-1.641-2.31-3.142-3.464-4.711c0.649-0.344,1.216-0.644,1.854-0.982
		c1.141,1.292,2.265,2.565,3.517,3.983C191.459,199.94,190.795,200.535,190.154,201.109z"/>
	<path class="st1" d="M153.006,220.415c-0.746,0.226-1.54,0.467-2.913,0.883c1.346-2.277-2.36-4.493,1.009-6.54
		C151.741,216.656,152.348,218.462,153.006,220.415z"/>
	<path class="st1" d="M162.944,217.109c-0.918,0.362-1.631,0.644-1.965,0.776c-1.518-1.598-2.891-3.045-4.198-4.422
		C158.938,212.871,161.003,214.003,162.944,217.109z"/>
	<path class="st1" d="M68.383,199.893c0,2.837,0,5.198,0,7.528C66.11,206.638,65.874,202.968,68.383,199.893z"/>
	<path class="st1" d="M79.882,206.871c-0.94,0.391-2.887,0.606-3.521,1.632c-0.647,1.046-0.003,2.891,0.059,4.071
		c-0.862-0.74-3.418-1.3-2.244-3.884C75.343,206.122,77.895,205.726,79.882,206.871z"/>
	<path class="st1" d="M169.977,206.84c0.424,3.866,1.557,5.018,5.288,4.47c-2.135,1.176-4.328,2.342-5.772,0.488
		C168.754,210.847,169.76,208.536,169.977,206.84z"/>
	<path class="st1" d="M126.021,224.796c-1.357-0.452-3.712-0.683-3.871-1.4c-0.367-1.654,0.333-3.545,0.704-6.043
		c2.064,2.525-0.999,6.463,3.511,6.809C126.251,224.373,126.136,224.584,126.021,224.796z"/>
	<path class="st1" d="M34.618,156.025c-1.268,2.403-2.536,4.806-3.831,7.262C29.801,161.156,31.478,157.504,34.618,156.025z"/>
	<path class="st1" d="M118.458,217.716c-0.093,2.046-0.185,4.076-0.283,6.236c-0.77,0-1.506,0-2.234,0
		c-0.053-0.236-0.169-0.478-0.111-0.531C117.503,221.888,114.912,218.437,118.458,217.716z"/>
	<path class="st1" d="M113.525,221.638c-0.203,0.257-0.817,1.034-1.627,2.06c-0.756-1.753-1.453-3.185-1.971-4.679
		c-0.155-0.448,0.185-1.069,0.299-1.61c0.469,0.325,1.068,0.558,1.381,0.995C112.266,219.32,112.774,220.344,113.525,221.638z"/>
	<path class="st1" d="M217.631,165.71c-1.92-1.069-3.635-2.024-5.35-2.979c0.038-0.243,0.076-0.485,0.114-0.728
		c2.05,0.294,4.101,0.588,6.402,0.918C218.486,163.664,218.077,164.641,217.631,165.71z"/>
	<path class="st1" d="M99.848,219.426c-0.471,0.399-1.033,0.875-2.27,1.923c0.758-2.813-2.165-4.746,0.171-7.524
		C98.522,215.886,99.127,217.501,99.848,219.426z"/>
	<path class="st1" d="M37.84,176.902c-0.253-0.629-0.493-1.225-0.66-1.64c1.737-1.204,3.336-2.312,5.086-3.525
		c0.216,0.265,0.575,0.704,1.038,1.271C41.474,174.312,39.721,175.561,37.84,176.902z"/>
	<path class="st1" d="M38.137,164.198c1.943,2.23-1.032,3.804-1.049,5.972c0.516,0.228,1.098,0.484,1.681,0.741
		c-0.017,0.092-0.035,0.185-0.052,0.277c-1.33-0.16-2.66-0.32-3.919-0.471C35.909,168.547,36.983,166.451,38.137,164.198z"/>
	<path class="st1" d="M47.928,190.322c-0.785-1.077-1.179-1.617-1.737-2.384c2.475-0.179,3.317-3.232,5.648-3.36
		c0.16,0.261,0.319,0.521,0.479,0.782C50.901,186.962,49.484,188.563,47.928,190.322z"/>
	<path class="st1" d="M178.837,202.453c1.161,1.672,1.436,4.196,4.488,3.484c-0.036,0.274-0.073,0.547-0.109,0.821
		c-1.48,0-3.204,0.489-4.389-0.103C176.454,205.469,179.236,203.917,178.837,202.453z"/>
	<path class="st1" d="M87.955,210.732c-2.853,1.845-3.373,3.484-2.451,6.528c-0.763-1.188-2.435-2.868-2.11-3.468
		c0.818-1.513,2.536-2.539,3.893-3.76C87.509,210.265,87.732,210.498,87.955,210.732z"/>
	<path class="st1" d="M54.883,197.496c-0.247-0.291-0.787-0.93-1.562-1.845c2.521-0.343,2.901-3.763,6.214-3.95
		C57.718,193.965,56.339,195.683,54.883,197.496z"/>
	<path class="st1" d="M105.36,216.029c-0.326,2.048-0.652,4.097-1.012,6.353c-0.716-0.17-1.497-0.355-2.224-0.527
		c0.846-2.131,1.634-4.117,2.422-6.102C104.818,215.845,105.089,215.937,105.36,216.029z"/>
	<path class="st1" d="M213.578,174.179c-1.529,0.973-2.711,1.943-4.065,2.473c-0.496,0.194-1.493-0.555-2.069-1.084
		c-0.21-0.193,0.138-0.994,0.231-1.518c0.634,0.141,1.268,0.398,1.902,0.399C210.74,174.451,211.902,174.303,213.578,174.179z"/>
	<path class="st1" d="M59.321,197.756c0.142,1.084,0.284,2.165,0.441,3.357c-2.865-1.692-2.828-1.795,1.888-5.85
		C62.668,197.402,62.588,197.489,59.321,197.756z"/>
	<path class="st1" d="M78.927,37.204c0.746-0.458,1.519-0.932,2.353-1.445c0.348,0.686,0.693,1.366,1.153,2.273
		c-1.097,0.898-2.187,1.791-3.256,2.666C79.09,39.48,79.013,38.409,78.927,37.204z"/>
	<path class="st1" d="M185.858,204.983c-1.068-2.138-1.845-3.694-2.792-5.592c1.293,0.461,3.206,0.617,3.473,1.363
		C186.937,201.865,186.174,203.393,185.858,204.983z"/>
	<path class="st1" d="M44.308,180.63c-0.973,0.335-1.946,0.67-3.111,1.071c-0.119-0.211-0.398-0.708-0.622-1.108
		c1.686-1.212,3.261-2.345,5.088-3.658c0.366,0.48,0.795,1.042,1.225,1.605C46.027,179.237,45.168,179.933,44.308,180.63z"/>
	<path class="st1" d="M44.308,180.63c0.86-0.696,1.719-1.393,2.579-2.089c0.045,0.07,0.127,0.14,0.128,0.212
		c0.015,1.054,0.018,2.109,0.025,3.164C46.129,181.487,45.218,181.058,44.308,180.63z"/>
	<path class="st1" d="M88.677,217.869c1.13-1.416,2.26-2.831,3.62-4.534c0.073,0.849,0.603,2.26,0.15,2.735
		c-0.972,1.02-2.45,1.557-3.721,2.292C88.71,218.197,88.693,218.033,88.677,217.869z"/>
	<path class="st1" d="M166.847,59.795c0.005,0.247-0.031,0.702,0.02,0.712c2.516,0.485,3.145,3.242,5.228,4.342
		c0.803,0.424,1.262,1.904,1.399,2.966c0.047,0.363-1.325,1.005-2.123,1.346c-0.429,0.183-1.095,0.161-1.519-0.046
		c-3.758-1.83-7.487-3.719-11.221-5.6c-0.512-0.258-0.97-0.657-1.505-0.832c-3.225-1.055-6.444-2.139-9.711-3.051
		c-1.389-0.388-2.886-0.415-4.338-0.55c-6.155-0.575-12.329-1.707-18.464-1.526c-6.016,0.178-12.007,1.613-17.983,2.651
		c-8.835,1.533-16.165,6.37-22.918,11.756c-5.057,4.034-9.155,9.278-13.626,14.033c-0.931,0.99-1.758,2.132-2.391,3.331
		c-0.431,0.816-1.579,1.905,0.128,2.803c0.142,0.075-0.088,1.241-0.402,1.737c-2.48,3.917-4.783,7.981-7.612,11.633
		c-2.92,3.771-4.415,7.703-3.545,12.313c2.433-3.852,4.929-7.803,7.425-11.755c0.289,0.147,0.579,0.294,0.868,0.44
		c-1.981,6.759-3.818,13.565-5.991,20.261c-1.654,5.098-1.365,9.902,0.736,14.384c1.089-5.045,2.219-10.28,3.349-15.516
		c0.228-0.037,0.455-0.074,0.683-0.111c0.207,0.656,0.567,1.305,0.598,1.969c0.299,6.539,0.381,13.093,0.877,19.615
		c0.225,2.957,1.043,5.919,1.973,8.754c0.49,1.494,1.799,2.72,2.738,4.067c0.358-0.115,0.715-0.23,1.073-0.345
		c-0.636-5.133-1.272-10.265-1.957-15.796c0.675,0.49,1.185,0.673,1.377,1.028c3.083,5.69,5.411,11.664,6.947,17.968
		c0.483,1.983,1.417,3.877,2.3,5.738c1.404,2.961,4.273,4.139,7.267,5.936c0.038-4.407-2.621-7.378-3.861-11.119
		c3.352-0.249,4.041,2.285,5.202,4.218c0.134,0.024,0.216,0.064,0.238,0.114c2.414,2.198,5.233,4.098,7.127,6.678
		c1.9,2.588,4.45,4.113,7.033,5.333c3.451,1.63,7.297,2.45,11.012,3.48c1.418,0.393,3.221,1.436,3.969-1.131
		c0.052-0.177,1.377-0.143,2.026,0.06c0.588,0.184,1.08,0.711,1.583,1.125c2.65,2.181,5.265,1.866,7.937,0.005
		c0.677-0.471,1.533-0.686,2.484-1.096c0.087,0.773,0.148,1.322,0.208,1.861c0.56-0.277,1.051-0.64,1.597-0.769
		c3.574-0.845,7.19-1.529,10.734-2.481c4.11-1.104,7.33-3.666,10.211-6.719c2.833-3.002,5.705-5.97,8.618-8.894
		c0.772-0.776,1.758-1.339,2.646-1.999c0.184,0.187,0.367,0.374,0.551,0.561c-2.332,4.606-4.664,9.212-6.994,13.815
		c7.193-3.889,11.537-10.105,13.207-18.05c1.174-5.585,3.544-10.734,7.209-15.201c0.076-0.092,0.314-0.051,0.492-0.074
		c-0.548,3.269-1.066,6.53-1.647,9.78c-0.56,3.137-1.185,6.262-1.858,9.794c3.624-4.274,6.129-8.631,6.893-13.672
		c0.55-3.629,0.377-7.366,0.578-11.051c0.223-4.095,0.46-8.191,0.807-12.276c0.058-0.682,0.706-1.314,1.116-2.028
		c1.065,6.258,2.074,12.185,3.082,18.113c0.24,0.008,0.479,0.017,0.719,0.025c0.392-4.057,1.236-8.139,1.017-12.163
		c-0.148-2.717-1.836-5.338-2.754-8.029c-0.488-1.43-0.93-2.899-1.17-4.387c-0.565-3.501-0.996-7.023-1.096-10.715
		c2.085,3.615,4.171,7.23,6.256,10.845c0.224-0.079,0.448-0.159,0.673-0.238c0.351-3.204,0.731-6.383-1.366-9.352
		c-2.722-3.855-5.399-7.743-8.015-11.67c-0.819-1.229-1.381-2.63-2.395-4.602c3.117,0.544,4.202,2.391,5.531,3.951
		c0.489,0.574,1.191,0.967,1.796,1.443c0.187-0.684,0.649-1.432,0.509-2.041c-0.449-1.943-0.829-3.994-1.77-5.711
		c-1.876-3.425-4.434-6.504-6.056-10.027c-0.847-1.84-0.901-3.908-3.251-4.608c-0.098-0.029-0.149-0.834-0.016-0.907
		c0.411-0.229,1.08-0.534,1.369-0.356c1.865,1.149,4.218,2.045,5.341,3.735c1.722,2.589,2.819,5.678,3.75,8.688
		c1.543,4.988,2.742,10.082,4.458,15.065c0-5.198,0-10.396,0-15.594c0.256-0.098,0.512-0.196,0.768-0.295
		c0.884,2.299,2.025,4.537,2.596,6.911c1.084,4.501,1.262,9.093-0.611,13.459c-2.47,5.759-0.753,11.584-0.755,17.323
		c1.915-5.958,3.83-11.916,5.745-17.874c1.576,7.957,1.478,15.763-3.679,22.355c-3.192,4.08-4.493,8.615-5.45,13.438
		c-0.08,0.402-0.057,0.824-0.113,1.778c3.322-6.235,9.48-9.937,10.716-16.923c0.34,0.098,0.68,0.196,1.02,0.294
		c-0.66,3.251-0.999,6.609-2.046,9.73c-2.132,6.361-6.508,11.137-11.999,14.802c-5.16,3.444-7.097,9.261-11.294,13.725
		c3.696-2.109,7.144-3.783,10.261-5.936c3.136-2.165,5.944-4.806,8.862-7.21c-0.191,0.49-0.432,1.303-0.81,2.047
		c-4.659,9.176-11.462,15.669-22.003,17.396c-3.403,0.557-6.344,1.98-9.04,4.125c-1.84,1.463-3.921,2.624-5.623,4.45
		c5.648-0.997,11.341-1.795,16.92-3.087c2.249-0.521,4.249-2.12,6.51-3.306c-0.242,0.447-0.412,0.958-0.738,1.334
		c-5.857,6.748-13.205,10.402-22.197,10.455c-4.05,0.024-8.1-0.188-12.151-0.243c-0.946-0.013-1.895,0.182-2.843,0.281
		c-0.008,0.271-0.015,0.542-0.023,0.814c7.581,1.221,15.163,2.443,22.294,3.591c-8.128,3.479-16.814,5.564-25.626,0.032
		c-1.458-0.916-2.964-1.766-4.362-2.766c-2.916-2.088-5.98-2.269-9.331-1.209c-1.226,0.388-2.839,0.622-3.936,0.146
		c-3.419-1.486-6.335-0.685-9.289,1.134c-2.856,1.758-5.697,3.608-8.746,4.965c-4.385,1.951-9.007,2.133-13.627,0.61
		c-2.477-0.817-4.953-1.638-7.39-2.887c8.694,2.439,15.729-3.307,23.652-4.839c-2.228,0-4.457,0.012-6.685-0.002
		c-5.333-0.035-10.688,0.207-15.993-0.195c-7.651-0.58-13.548-4.651-18.377-10.407c-0.295-0.352-0.458-0.816-0.52-1.507
		c6.455,5.76,14.406,5.082,22.043,5.807c-4.178-3.091-7.847-6.697-13.305-7.537c-10.036-1.544-16.883-7.616-21.525-16.402
		c-0.677-1.281-1.216-2.634-1.818-3.954c0.241-0.151,0.482-0.301,0.723-0.452c1.45,1.737,2.698,3.713,4.403,5.147
		c1.878,1.58,4.154,2.7,6.297,3.951c2.128,1.242,4.307,2.396,6.614,3.439c-3.441-4.385-5.97-9.376-10.748-12.799
		c-3.282-2.351-5.68-5.91-8.618-8.78c-1.044-1.02-2.439-1.799-3.811-2.34c-2.052-0.808-2.936-2.454-3.214-4.318
		c-3.367-22.568,2.075-42.962,15.77-61.064c11.232-14.847,25.944-24.948,43.992-29.641c24.622-6.403,47.677-2.606,68.789,11.83
		c1.617,1.106,3.028,2.555,4.371,3.996c0.493,0.529,0.512,1.498,0.362,2.44c-1.662-1.235-4.106-0.918-4.879-3.232
		c-0.133-0.398-1.798-0.558-2.651-0.365c-0.865,0.196-1.6,0.965-2.392,1.482c0.07-0.332,0.125-0.667,0.213-0.993
		c0.982-3.62-0.403-5.065-4.07-4.26c-1.154,0.253-2.318,0.459-3.473,0.686c0.906-0.696,1.806-1.39,2.595-1.998
		c-2.01-3.516-3.843,1.553-5.777-0.46c0.347-0.606,0.708-1.235,1.077-1.878c-1.506-1.355-2.724-1.21-3.655,0.407
		c-1.042,1.811,0.56,2.305,1.656,2.759c1.322,0.546,2.78,0.766,4.179,1.127c0.197,0.364,0.301,0.875,0.607,1.069
		c1.806,1.148,3.646,2.246,5.509,3.301C165.938,59.843,166.429,59.755,166.847,59.795z M134.304,53.724
		c0.334,0.314,0.625,0.822,1.01,0.908c1.598,0.356,3.221,0.606,4.842,0.844c0.372,0.055,0.774-0.093,1.684-0.22
		c-0.765-1.404-1.108-2.939-2.052-3.559c-1.526-1.003-3.096-0.093-4.365,1.085c-0.376,0.349-0.775,0.672-1.164,1.008
		c0-0.839,0-1.677,0-2.935c-1.867-0.162-3.635-0.446-5.389-0.378c-0.462,0.018-1.199,1.11-1.23,1.737
		c-0.029,0.606,0.666,1.766,1.084,1.785C130.576,54.085,132.442,53.847,134.304,53.724z M146.058,56.218
		c3.775,2,6.691,3.545,9.607,5.091c2.193,1.163,3.9,0.756,5.038-1.526c-1.822-2.631-2.866-2.867-6.412-1.726
		c-0.78-1.118-1.435-2.906-2.17-2.94C150.268,55.032,148.379,55.737,146.058,56.218z M71.906,74.958
		c-5.027,4.186-13.195,20.731-12.768,24.381C63.265,91.457,67.585,83.208,71.906,74.958z M68.984,68.632
		c0.108,0.401,0.216,0.802,0.325,1.203c1.581,0.075,3.162,0.15,4.743,0.225c-0.226-0.588-0.452-1.177-0.675-1.756
		c2.93-0.247,3.234-0.652,2.059-2.541c0.844-0.174,1.769-0.364,2.694-0.555c-0.035-0.414-0.07-0.829-0.104-1.243
		c-1.538-0.123-3.108-0.462-4.594-0.24c-0.453,0.067-0.675,1.678-1.061,2.741C71.498,67.024,70.241,67.828,68.984,68.632z
		 M88.422,55.56c1.022,0.1,1.921,0.188,2.819,0.275c0.101-0.344,0.202-0.689,0.303-1.033c-1.191-0.581-2.365-1.55-3.578-1.602
		c-0.775-0.033-1.608,1.291-2.77,2.322c-0.897,0.25-2.42,0.674-3.942,1.098c-0.019,0.318-0.038,0.635-0.057,0.953
		c1.321,0.524,2.642,1.049,3.964,1.573c0.192-0.528,0.383-1.056,0.613-1.688C86.875,57.378,89.138,58.579,88.422,55.56z
		 M146.261,47.565c-0.217-0.141-0.408-0.344-0.634-0.398c-1.159-0.279-2.321-0.555-3.493-0.766
		c-2.869-0.518-3.195-0.236-3.516,3.076c2.045,0.392,4.107,0.788,6.116,1.174C145.299,49.508,145.769,48.558,146.261,47.565z
		 M98.851,51.796c-2.836-2.417-4.974-2.254-8.374,0.516C92.93,55.115,95.213,55.009,98.851,51.796z M75.229,61.689
		c4.053,2.479,5.804,1.997,8.359-2.371c-1.217,0.645-2.024,1.073-3.28,1.739c0.714-0.841,1.081-1.274,1.384-1.631
		c-0.61-0.492-1.145-0.923-1.863-1.502C78.42,59.078,76.921,60.304,75.229,61.689z M107.462,46.888
		c0.72,1.042,1.178,2.387,2.033,2.725c0.697,0.275,1.87-0.655,2.893-1.075c1.227,0.135,2.644,0.291,4.062,0.447
		c0.052-0.21,0.104-0.42,0.157-0.631c-0.645-0.465-1.29-0.931-1.916-1.382c0.326-0.509,0.59-0.922,0.961-1.501
		C112.873,45.951,110.411,46.377,107.462,46.888z M101.934,53.639c-0.112,0.407-0.225,0.814-0.337,1.221
		c1.179,0.595,2.359,1.19,3.538,1.785c0.535-1.472,1.524-1.219,2.727-0.895c0.585,0.158,1.338-0.304,2.47-0.607
		c-1.462-1.518-1.583-4.764-4.276-1.697c-0.204,0.232-0.955-0.056-1.448-0.031C103.715,53.461,102.825,53.561,101.934,53.639z
		 M126.095,48.327c-1.805-1.932-2.813-4.017-5.152-3.225c-1.391,0.471-2.49,1.808-3.72,2.755c0.152,0.157,0.304,0.313,0.455,0.47
		C120.223,48.327,122.768,48.327,126.095,48.327z M104.5,50.467c-1.409-0.481-2.536-0.518-2.996-1.09
		c-1.166-1.45-2.058-1.006-3.168-0.121c1.677,2.43,6.545,2.832,8.065,0.648c0.35-0.504,0.07-1.96-0.429-2.394
		c-0.483-0.421-1.621-0.091-2.671-0.091C103.694,48.418,103.938,49.039,104.5,50.467z M137.893,47.295
		c0.03-0.384,0.061-0.767,0.091-1.151c-1.525-0.28-3.039-0.669-4.576-0.818c-2.919-0.284-3.094-0.025-2.6,3.39
		C133.182,48.24,135.538,47.768,137.893,47.295z M103.331,56.948c-2.49-1.124-4.494-2.988-6.728-1.071
		c-0.608,0.522-0.092,2.354-0.092,3.788C99.005,58.672,100.92,57.909,103.331,56.948z M116.172,53.542
		c0.217,0.212,0.434,0.424,0.65,0.636c2.252-0.19,4.504-0.38,7.102-0.599c-1.495-1.722-2.467-3.814-4.729-2.974
		C117.99,51.052,117.167,52.529,116.172,53.542z M110.027,51.645c0.684,3.415,1.622,4.222,3.14,3.013
		c0.671-0.535,1.442-0.945,2.123-1.469c0.374-0.287,0.656-0.694,0.979-1.047c-0.412-0.353-0.835-1.019-1.235-1.005
		C113.368,51.194,111.71,51.456,110.027,51.645z M57.23,85.979c-2.377,5.344-0.655,10.505-0.774,15.602
		c0.258,0.007,0.516,0.014,0.774,0.022C57.23,96.508,57.23,91.414,57.23,85.979z M148.671,54.508c0.12-0.204,0.24-0.408,0.359-0.612
		c-2.189-0.604-4.378-1.208-6.605-1.822c0.362,1.589,0.618,2.71,1.004,4.407c0.681-0.294,1.508-0.688,2.362-1.009
		C146.739,55.115,147.71,54.826,148.671,54.508z M49.551,104.753c-0.825,5.741,2.487,10.312,4.338,15.278
		C52.458,114.991,51.027,109.95,49.551,104.753z M146.137,51.045c2.127,0.631,4.038,1.199,5.949,1.766
		c0.094-0.312,0.188-0.625,0.282-0.937c-0.874-0.422-1.748-0.844-2.802-1.353c0.116-0.277,0.245-0.556,0.35-0.843
		c0.137-0.374,0.254-0.756,0.377-1.127C147.67,47.538,147.59,47.584,146.137,51.045z M88.937,59.552
		c1.734,0.616,3.117,1.227,4.563,1.56c0.565,0.13,1.275-0.364,2.683-0.822c-1.26-0.773-1.913-1.173-2.487-1.525
		c0.446-0.74,0.734-1.218,1.022-1.695c-0.144-0.15-0.288-0.299-0.432-0.449C92.448,57.628,90.61,58.635,88.937,59.552z"/>
	<path class="st1" d="M80.992,131.201c1.087,1.297,1.971,2.933,4.123,1.574c0.246-0.155,0.836-0.187,0.976-0.025
		c2.454,2.835,5.933,1.612,8.909,2.167c10.745,2.004,19.534,7.291,26.878,15.216c0.758,0.818,1.525,1.627,2.287,2.44
		c2.894-2.756,5.591-5.627,8.598-8.126c7.349-6.107,15.767-9.713,25.41-10.214c1.973-0.102,4.071-0.003,5.856-0.676
		c0.989-0.373,1.446-2.154,2.35-3.641c0.102,0.032,0.804,0.25,1.601,0.499c-0.712,1.329-1.348,2.515-2.039,3.804
		c1.678,0.375,3.215,0.718,4.254,0.95c-1.108,2.61-2.241,5.003-3.147,7.478c-1.45,3.963-2.799,7.966-4.087,11.986
		c-0.451,1.408-1.176,1.975-2.642,1.741c-13.163-2.107-23.649,3.495-33.261,11.59c-0.527,0.444-1.028,0.918-1.548,1.371
		c-1.198,1.045-1.877,1.392-3.52-0.077c-9.073-8.114-19.007-14.434-32.038-12.655c-1.493,0.204-2.957,0.623-4.603,0.979
		c-2.42-7.125-4.895-14.414-7.493-22.063c2.822-0.352,5.386-0.671,7.95-0.99c-4.379-0.141-4.379-0.141-7-4.24
		c1.031-0.528,2.034-1.041,3.144-1.609c-0.451-1.91-0.625-3.855-3.514-3.683c-2.15,0.128-3.518-1.519-3.439-4.356
		c0.022-0.785,1.611-1.527,2.95-2.699c0.443-3.388,0.379-3.472-4.103-3.985c0-1.476-0.185-3.03,0.081-4.502
		c0.126-0.696,1.207-1.826,1.697-1.749c2.689,0.423,3.35-1.422,3.084-3.156c-0.143-0.927-2.021-1.586-3.115-2.366
		c-0.287,0.131-0.573,0.262-0.86,0.394c0.403-1.682,0.694-3.405,1.285-5.018c0.153-0.418,1.266-0.737,1.901-0.682
		c2.692,0.232,4.02-1.396,3.167-4.387c0.725,0.22,1.313,0.398,2.009,0.609c-0.519,1.278-0.801,2.494-1.466,3.44
		c-0.52,0.74-1.524,1.619-2.299,1.605c-1.823-0.032-2.583,0.736-2.653,2.373c-0.089,2.1,1.501,1.638,2.736,1.7
		c0.247,0.012,0.49,0.118,0.74,0.182c-0.192,1.198-0.435,2.354-0.551,3.522c-0.161,1.618-0.727,2.654-2.528,3.083
		c-0.743,0.177-1.569,1.398-1.739,2.266c-0.263,1.343,0.673,1.867,2.071,1.945c0.512,0.029,1.175,0.97,1.401,1.623
		c0.302,0.87,0.428,1.892,0.29,2.797c-0.135,0.886-0.662,1.723-1.08,2.55c-0.341,0.674-1.254,1.559-1.071,1.898
		c0.424,0.789,1.541,1.965,2.051,1.822c2.991-0.841,2.848,1.726,3.742,3.143c1.081,1.712-0.405,2.446-1.329,3.397
		C81.239,130.617,81.163,130.881,80.992,131.201z"/>
	<path class="st1" d="M153.381,123.447c0.735,0.245,1.947,0.37,2.79,0.994c1.24,0.919,2.748,2.012,3.204,3.35
		c1.213,3.565-0.5,5.525-4.699,5.629c-4.652,0.116-9.31,0.099-13.964,0.029c-7.492-0.113-14.983-0.358-22.475-0.428
		c-0.877-0.008-2.074,0.495-2.582,1.169c-1.29,1.715-2.937,2.036-4.808,1.756c-5.698-0.852-11.391-1.745-17.078-2.676
		c-3.532-0.578-5.072-2.549-4.586-6.142c1.247-9.214,2.597-18.414,3.927-27.617c0.367-2.539,1.106-5.062,1.147-7.602
		c0.067-4.08,2.414-6.648,5.163-9.083c1.477-1.308,2.99-2.574,4.462-3.887c2.053-1.831,4.417-1.81,6.359,0.208
		c1.67,1.735,3.328,3.496,4.823,5.379c2.109,2.655,2.053,5.928,2.272,9.099c0.05,0.725,0.119,1.448,0.179,2.172
		c0.287,0.092,0.574,0.185,0.861,0.277c0.603-1.18,1.326-2.315,1.789-3.547c2.168-5.776,7.537-7.988,12.77-4.849
		c4.634,2.78,9.379,5.583,13.348,9.178c2.12,1.921,3.064,5.438,3.895,8.414c1.175,4.211,1.786,8.583,2.573,12.898
		C153.036,119.727,153.134,121.322,153.381,123.447z M151.515,122.671c-1.551-7.583-2.933-14.595-4.476-21.572
		c-0.209-0.946-1.062-1.944-1.891-2.528c-4.862-3.423-9.804-6.734-14.727-10.07c-0.492-0.334-1.024-0.789-1.567-0.834
		c-1.512-0.126-6.67,4.014-6.759,5.649c-0.227,4.189-3.25,5.316-6.624,6.65c-0.265-3.877-0.493-7.474-0.77-11.068
		c-0.058-0.746-0.061-1.683-0.493-2.181c-2.29-2.639-4.709-5.167-7.14-7.795c-2.977,2.747-5.826,5.246-8.501,7.92
		c-0.834,0.833-1.542,2.082-1.723,3.233c-1.891,12.003-3.661,24.024-5.47,36.04c-0.632,4.199-0.642,4.215,3.641,4.968
		c6.336,1.114,12.678,2.202,19.306,3.35c-0.465-1.431-0.839-2.581-1.136-3.497c15.025,0,29.893,0,44.744,0
		c-0.396-4.149-1.069-4.768-5.209-5.064c-2.662-0.191-5.317-0.531-7.963-0.892c-0.715-0.097-1.386-0.512-2.077-0.781
		c0.044-0.224,0.087-0.448,0.131-0.672C145.617,123.252,148.424,122.975,151.515,122.671z"/>
	<path class="st1" d="M162.538,161.073c-0.986,0.136-2.009,0.514-2.953,0.372c-12.448-1.88-22.346,3.275-31.266,11.197
		c-0.58,0.515-1.207,0.983-1.74,1.542c-1.625,1.706-2.939,1.991-4.933,0.107c-5.08-4.801-10.603-9.151-17.336-11.39
		c-5.555-1.847-11.301-1.824-17.219-0.433c-0.191-0.425-0.458-1.019-0.862-1.917c4.863-1.161,9.506-1.047,14.208-0.45
		c4.768,0.605,8.827,2.849,12.681,5.425c3.905,2.611,7.565,5.588,11.353,8.42C141.466,157.667,154.416,157.642,162.538,161.073z"/>
	<path class="st1" d="M88.107,167.665c-0.022-0.05-0.104-0.089-0.238-0.114c0.222-0.853,0.436-1.711,0.694-2.745
		c15.057-3.779,25.86,4.1,35.975,13.757c10.342-9.87,21.233-18.088,36.933-13.439c-0.986,0.244-2.032,0.835-2.95,0.679
		c-12.421-2.122-21.849,3.602-30.491,11.461c-0.319,0.29-0.63,0.588-0.945,0.882c-2.697,2.517-2.821,2.423-5.646-0.059
		c-2.832-2.487-5.788-4.843-8.792-7.122c-6.129-4.652-13.175-5.693-20.595-4.816C90.696,166.31,89.42,167.143,88.107,167.665z"/>
	<path class="st1" d="M156.345,85.41c0.712-0.573,1.355-1.09,1.983-1.595c-1.107-3.011-1.596-3.103-4.394-2.466
		c-1.202,0.274-2.628-0.432-4.179-0.738c2.157-0.495,3.72-0.956,5.317-1.17c0.649-0.087,1.496,0.2,2.031,0.608
		c1.142,0.871,2.139,1.933,3.17,2.893c-0.788,1.082-1.476,2.027-2.214,3.041c1.098,1.008,2.035,1.869,2.924,2.686
		c1.527-0.297,2.837-2.217,4.374-0.088c2.008,2.78,2.071,2.734-0.881,6.066c0.848,1.542,1.207,3.607,3.985,2.606
		c0.468-0.169,1.85,0.796,2.006,1.433c0.407,1.665,1.654,3.712-1.16,4.749c-1.928,0.71-2.487,3.624-0.844,4.611
		c0.91,0.546,2.265,0.351,3.577,0.509c0,1.345,0.178,2.648-0.066,3.867c-0.151,0.754-0.891,1.913-1.457,1.968
		c-2.134,0.209-2.418,1.524-2.501,3.205c-0.1,2.03,1.435,1.741,2.639,1.971c0.242,0.046,0.462,0.214,0.838,0.397
		c-0.331,1.271-0.537,2.619-1.055,3.833c-0.295,0.691-1.181,1.712-1.665,1.643c-2.802-0.404-3.32,1.468-3.904,3.444
		c-0.114,0.385-0.545,0.677-0.983,1.192c-0.269-4.148,1.313-6.09,4.803-5.853c0.32-0.843,0.674-1.773,1.144-3.012
		c-0.92-0.535-1.828-1.063-2.819-1.64c-0.508-5.284-0.132-6.097,3.044-6.375c1.246-3.205,1.167-3.33-2.829-4.469
		c-1.668-5.698-1.668-5.698,2.022-6.575c0.154-1.975,0.121-3.292-2.66-3.745c-1.539-0.251-2.743-2.56-4.357-4.205
		c1.276-0.796,2.038-1.271,2.878-1.795c-0.003-2.348-0.613-3.835-3.509-2.888c-0.556,0.182-1.522-0.242-2.03-0.69
		C158.444,87.829,157.481,86.637,156.345,85.41z"/>
	<path class="st1" d="M127.492,71.861c-0.811-0.35-2.36,0.511-2.229-1.505c0.022-0.337-1.448-1.113-2.197-1.074
		c-1.041,0.054-2.439,0.391-3,1.128c-1.598,2.098-6.176,2.444-8.061,0.548c-0.621-0.625-1.93-0.995-2.795-0.825
		c-0.848,0.167-1.824,1.025-2.226,1.836c-0.818,1.652-4.395,3.532-5.819,2.435c-2.158-1.663-3.379-0.438-4.849,0.853
		c-0.473,0.415-1.222,0.517-1.844,0.762c0.313-0.667,0.462-1.536,0.977-1.958c0.915-0.75,2.021-1.296,3.109-1.792
		c0.483-0.22,1.455-0.357,1.627-0.117c1.844,2.573,3.68,0.995,5.678,0.082c-0.86-2.392,0.233-3.254,2.539-3.287
		c1.104-0.015,2.198-0.432,3.306-0.494c0.489-0.027,1.446,0.389,1.44,0.579c-0.112,3.458,2.407,1.92,3.971,2.127
		c0.403,0.053,0.831-0.079,1.203-0.12c0.831-3.151,4.059-4.006,8.122-2.453c0.366,1.249,0.674,2.298,0.985,3.344
		C127.432,71.926,127.492,71.861,127.492,71.861z"/>
	<path class="st1" d="M166.847,59.795c-0.418-0.04-0.909,0.048-1.243-0.141c-1.862-1.055-3.702-2.153-5.509-3.301
		c-0.305-0.194-0.409-0.704-0.607-1.069l-0.08,0.046c1.16-0.228,2.324-0.434,3.478-0.687c3.667-0.805,5.052,0.639,4.07,4.26
		c-0.088,0.326-0.143,0.661-0.213,0.993C166.745,59.897,166.847,59.795,166.847,59.795z"/>
	<path class="st1" d="M138.749,74.009c-0.505,0.046-1.011,0.092-1.776,0.162c0.272-0.809,0.496-1.476,0.803-2.39
		c-1.781-0.863-3.294-2.282-5.241,0.196c-1.44,1.831-3.374,1.016-5.04-0.119c-0.003,0.003-0.063,0.069-0.066,0.072
		c0.921-0.003,1.855,0.065,2.767-0.045c0.504-0.061,1.325-0.336,1.402-0.657c0.636-2.678,2.411-2.09,4.199-1.602
		c1.215,0.332,2.437,0.636,3.678,0.959c-0.286,1.25-0.538,2.353-0.79,3.457L138.749,74.009z"/>
	<path class="st1" d="M96.42,76.491c0.268,0.242,0.729,0.484,0.707,0.665c-0.227,1.842-3.658,4.261-5.269,3.449
		c-2.411-1.216-3.451,0.231-4.678,1.75c-0.446,0.553-1.082,0.953-1.631,1.422c-0.241-0.251-0.483-0.502-0.724-0.753
		c1.022-1.124,2.065-2.229,3.061-3.376c1.289-1.483,2.475-1.205,4.02-0.215C93.329,80.346,95.338,78.933,96.42,76.491z"/>
	<path class="st1" d="M78.95,92.793c-0.033-3.994,1.85-5.703,4.999-5.068c1.617,0.326,3.282-1.485,3.438-3.944
		c0.553,0.174,1.058,0.333,1.76,0.554c-0.881,1.269-1.551,2.452-2.442,3.434c-0.524,0.577-1.551,1.319-2.091,1.151
		c-2.57-0.801-3.649,0.412-4.315,2.613C80.182,91.92,79.632,92.177,78.95,92.793z"/>
	<path class="st1" d="M138.684,74.041c1.098,0.163,2.193,0.35,3.295,0.477c0.481,0.056,1.057,0.15,1.453-0.047
		c3.18-1.588,4.22-1.412,7.348,1.497c-0.777,1.091-1.553,2.182-2.33,3.272c-0.247-0.094-0.494-0.188-0.741-0.282
		c0.988-1.682,1.841-3.36-0.639-4.231c-0.511-0.179-1.363-0.315-1.657-0.041c-2.528,2.361-4.54,0.514-6.656-0.683
		C138.749,74.009,138.684,74.041,138.684,74.041z"/>
	<path class="st1" d="M146.058,56.218c2.321-0.481,4.211-1.186,6.064-1.101c0.735,0.034,1.389,1.822,2.17,2.94
		c3.546-1.141,4.59-0.905,6.412,1.726c-1.138,2.282-2.845,2.689-5.038,1.526C152.749,59.762,149.832,58.218,146.058,56.218z"/>
	<path class="st1" d="M71.906,74.958c-4.32,8.25-8.641,16.5-12.768,24.381C58.711,95.689,66.879,79.144,71.906,74.958z"/>
	<path class="st1" d="M68.984,68.632c1.257-0.804,2.514-1.608,3.386-2.167c0.386-1.063,0.609-2.674,1.061-2.741
		c1.486-0.222,3.056,0.117,4.594,0.24c0.035,0.414,0.07,0.829,0.104,1.243c-0.925,0.191-1.851,0.381-2.694,0.555
		c1.175,1.889,0.87,2.294-2.059,2.541c0.223,0.58,0.449,1.168,0.675,1.756c-1.581-0.075-3.162-0.15-4.743-0.225
		C69.2,69.434,69.092,69.033,68.984,68.632z"/>
	<path class="st1" d="M88.422,55.56c0.715,3.019-1.547,1.818-2.648,1.898c-0.229,0.632-0.421,1.16-0.613,1.688
		c-1.321-0.524-2.642-1.049-3.964-1.573c0.019-0.318,0.038-0.635,0.057-0.953c1.522-0.424,3.045-0.848,3.942-1.098
		c1.162-1.031,1.995-2.355,2.77-2.322c1.213,0.051,2.387,1.021,3.578,1.602c-0.101,0.344-0.202,0.689-0.303,1.033
		C90.343,55.748,89.445,55.66,88.422,55.56z"/>
	<path class="st1" d="M146.261,47.565c-0.492,0.993-0.962,1.943-1.527,3.085c-2.009-0.386-4.071-0.781-6.116-1.174
		c0.322-3.312,0.648-3.593,3.516-3.076c1.173,0.212,2.334,0.487,3.493,0.766C145.853,47.222,146.044,47.424,146.261,47.565z"/>
	<path class="st1" d="M98.851,51.796c-3.638,3.212-5.922,3.319-8.374,0.516C93.877,49.542,96.015,49.379,98.851,51.796z"/>
	<path class="st1" d="M134.303,53.726c-1.861,0.121-3.727,0.358-5.579,0.273c-0.418-0.019-1.113-1.179-1.084-1.785
		c0.03-0.627,0.768-1.719,1.23-1.737c1.754-0.068,3.523,0.216,5.389,0.378c0,1.258,0,2.096,0,2.935L134.303,53.726z"/>
	<path class="st1" d="M75.229,61.689c1.692-1.385,3.191-2.612,4.6-3.765c0.719,0.579,1.253,1.01,1.863,1.502
		c-0.303,0.357-0.67,0.789-1.384,1.631c1.256-0.666,2.064-1.094,3.28-1.739C81.033,63.687,79.282,64.169,75.229,61.689z"/>
	<path class="st1" d="M107.462,46.888c2.95-0.511,5.411-0.937,8.19-1.418c-0.37,0.579-0.635,0.993-0.961,1.501
		c0.626,0.451,1.271,0.917,1.916,1.382c-0.052,0.21-0.104,0.42-0.157,0.631c-1.417-0.156-2.835-0.312-4.062-0.447
		c-1.023,0.421-2.197,1.351-2.893,1.075C108.639,49.275,108.182,47.93,107.462,46.888z"/>
	<path class="st1" d="M159.489,55.285c-1.399-0.361-2.856-0.58-4.179-1.127c-1.096-0.453-2.698-0.948-1.656-2.759
		c0.931-1.617,2.149-1.762,3.655-0.407c-0.369,0.643-0.73,1.272-1.077,1.878c1.933,2.013,3.767-3.055,5.777,0.46
		c-0.789,0.608-1.69,1.302-2.595,1.998C159.41,55.331,159.489,55.285,159.489,55.285z"/>
	<path class="st1" d="M101.934,53.639c0.891-0.078,1.781-0.179,2.674-0.225c0.493-0.026,1.244,0.263,1.448,0.031
		c2.693-3.066,2.814,0.179,4.276,1.697c-1.132,0.303-1.884,0.765-2.47,0.607c-1.202-0.324-2.191-0.577-2.727,0.895
		c-1.179-0.595-2.359-1.19-3.538-1.785C101.709,54.453,101.822,54.046,101.934,53.639z"/>
	<path class="st1" d="M126.095,48.327c-3.327,0-5.872,0-8.417,0c-0.152-0.157-0.304-0.313-0.455-0.47
		c1.23-0.947,2.329-2.284,3.72-2.755C123.281,44.309,124.289,46.395,126.095,48.327z"/>
	<path class="st1" d="M134.26,53.789c0.389-0.335,0.788-0.659,1.164-1.008c1.269-1.178,2.838-2.088,4.365-1.085
		c0.944,0.62,1.286,2.155,2.052,3.559c-0.91,0.127-1.312,0.274-1.684,0.22c-1.621-0.238-3.244-0.488-4.842-0.844
		c-0.385-0.086-0.676-0.594-1.011-0.907C134.303,53.726,134.26,53.789,134.26,53.789z"/>
	<path class="st1" d="M104.5,50.467c-0.562-1.428-0.806-2.049-1.199-3.048c1.05,0,2.187-0.33,2.671,0.091
		c0.499,0.434,0.779,1.891,0.429,2.394c-1.519,2.184-6.388,1.782-8.065-0.648c1.11-0.885,2.002-1.329,3.168,0.121
		C101.964,49.95,103.09,49.987,104.5,50.467z"/>
	<path class="st1" d="M137.893,47.295c-2.356,0.472-4.711,0.945-7.085,1.421c-0.494-3.415-0.319-3.674,2.6-3.39
		c1.537,0.149,3.051,0.538,4.576,0.818C137.954,46.528,137.923,46.912,137.893,47.295z"/>
	<path class="st1" d="M103.331,56.948c-2.412,0.961-4.327,1.724-6.82,2.717c0-1.434-0.516-3.266,0.092-3.788
		C98.838,53.961,100.841,55.824,103.331,56.948z"/>
	<path class="st1" d="M116.172,53.542c0.996-1.013,1.819-2.49,3.024-2.938c2.262-0.84,3.234,1.252,4.729,2.974
		c-2.598,0.219-4.85,0.409-7.102,0.599C116.605,53.966,116.388,53.754,116.172,53.542z"/>
	<path class="st1" d="M110.027,51.645c1.683-0.189,3.341-0.451,5.007-0.508c0.4-0.014,0.823,0.652,1.235,1.005
		c-0.323,0.353-0.605,0.759-0.979,1.046c-0.681,0.524-1.451,0.934-2.123,1.469C111.648,55.867,110.711,55.06,110.027,51.645z"/>
	<path class="st1" d="M57.23,85.979c0,5.435,0,10.529,0,15.624c-0.258-0.007-0.516-0.014-0.774-0.022
		C56.574,96.483,54.853,91.322,57.23,85.979z"/>
	<path class="st1" d="M148.671,54.508c-0.961,0.318-1.932,0.607-2.879,0.963c-0.855,0.321-1.682,0.716-2.362,1.009
		c-0.387-1.697-0.642-2.817-1.004-4.407c2.227,0.614,4.416,1.218,6.605,1.822C148.91,54.1,148.791,54.304,148.671,54.508z"/>
	<path class="st1" d="M49.551,104.753c1.475,5.197,2.906,10.238,4.338,15.278C52.038,115.065,48.727,110.494,49.551,104.753z"/>
	<path class="st1" d="M146.137,51.045c1.454-3.462,1.533-3.508,4.156-2.494c-0.123,0.371-0.241,0.752-0.377,1.127
		c-0.105,0.287-0.234,0.566-0.35,0.843c1.054,0.509,1.928,0.931,2.802,1.353c-0.094,0.312-0.188,0.625-0.282,0.937
		C150.175,52.244,148.264,51.677,146.137,51.045z"/>
	<path class="st1" d="M88.937,59.552c1.673-0.917,3.511-1.924,5.348-2.931c0.144,0.15,0.288,0.299,0.432,0.449
		c-0.288,0.477-0.575,0.954-1.022,1.695c0.574,0.352,1.227,0.752,2.487,1.525c-1.408,0.459-2.117,0.952-2.683,0.822
		C92.054,60.778,90.671,60.167,88.937,59.552z"/>
	<path class="st1" d="M151.515,122.671c-3.091,0.304-5.898,0.581-8.705,0.857c-0.044,0.224-0.087,0.448-0.131,0.672
		c0.691,0.269,1.362,0.684,2.077,0.781c2.646,0.36,5.3,0.701,7.963,0.892c4.14,0.296,4.814,0.915,5.209,5.064
		c-14.851,0-29.719,0-44.744,0c0.298,0.916,0.671,2.066,1.136,3.497c-6.629-1.149-12.97-2.236-19.306-3.35
		c-4.283-0.753-4.273-0.769-3.641-4.968c1.809-12.016,3.579-24.037,5.47-36.04c0.181-1.151,0.89-2.4,1.723-3.233
		c2.675-2.673,5.523-5.172,8.501-7.92c2.431,2.628,4.85,5.155,7.14,7.795c0.432,0.498,0.435,1.436,0.493,2.181
		c0.277,3.594,0.505,7.191,0.77,11.068c3.374-1.334,6.397-2.461,6.624-6.65c0.089-1.636,5.246-5.775,6.759-5.649
		c0.543,0.045,1.074,0.5,1.567,0.834c4.923,3.336,9.864,6.647,14.727,10.07c0.829,0.584,1.682,1.581,1.891,2.528
		C148.582,108.076,149.964,115.089,151.515,122.671z M112.465,89.702c2.504-0.354,1.23-2.103,0.687-2.799
		c-1.601-2.054-3.528-3.854-5.804-6.258c0.072,2.534-0.989,4.345,1.77,5.304c1.284,0.446,2.078,2.307,3.093,3.526
		c-1.646-1.111-3.292-2.221-5.185-3.498c-0.088,1.418-0.392,2.568-0.154,3.592c0.218,0.936,1.066,2.5,1.56,2.471
		c2.894-0.169,3.324,2.469,4.842,3.823c-2.125-1.197-4.251-2.394-6.693-3.769c-0.815,11.91-1.609,23.507-2.397,35.016
		c4.04,0,7.622,0,11.278,0c0.065-0.527,0.155-0.856,0.138-1.18c-0.482-9.282-0.957-18.564-1.501-27.843
		c-0.046-0.779-0.575-1.531-0.893-2.311C114.707,93.539,113.878,91.585,112.465,89.702z M147.059,119.519
		c-0.666-5.846-1.273-11.294-1.932-16.737c-0.054-0.45-0.354-1.027-0.721-1.258c-4.322-2.727-8.679-5.4-13.503-8.381
		c0,6.807-0.019,13.048,0.04,19.289c0.004,0.458,0.479,1.164,0.901,1.328C136.775,115.682,141.739,117.521,147.059,119.519z
		 M116.711,117.173c-0.178,0.106-0.357,0.213-0.535,0.319c0.176,2.235,0.353,4.471,0.545,6.913c2.195-0.452,4.042-0.832,5.895-1.214
		C120.46,120.993,118.585,119.083,116.711,117.173z"/>
	<path class="st1" d="M113.22,95.793c0.304,0.764,0.833,1.515,0.879,2.295c0.544,9.278,1.019,18.561,1.501,27.843
		c0.017,0.323-0.073,0.652-0.138,1.18c-3.656,0-7.238,0-11.278,0c0.788-11.509,1.582-23.107,2.397-35.016
		c2.443,1.375,4.568,2.572,6.688,3.763C113.265,95.85,113.22,95.793,113.22,95.793z"/>
	<path class="st1" d="M147.059,119.519c-5.321-1.998-10.285-3.838-15.216-5.759c-0.422-0.164-0.896-0.87-0.901-1.328
		c-0.059-6.241-0.04-12.482-0.04-19.289c4.824,2.981,9.181,5.654,13.503,8.381c0.367,0.231,0.667,0.808,0.721,1.258
		C145.786,108.225,146.393,113.673,147.059,119.519z"/>
	<path class="st1" d="M112.465,89.702c1.413,1.883,2.242,3.837,0.748,6.083c0.007,0.008,0.052,0.065,0.057,0.071
		c-1.514-1.348-1.943-3.986-4.837-3.816c-0.494,0.029-1.343-1.535-1.56-2.471c-0.238-1.024,0.066-2.174,0.154-3.592
		c1.893,1.277,3.539,2.388,5.185,3.498C112.303,89.542,112.388,89.618,112.465,89.702z"/>
	<path class="st1" d="M116.711,117.173c1.874,1.91,3.749,3.82,5.906,6.018c-1.853,0.382-3.7,0.762-5.895,1.214
		c-0.193-2.442-0.369-4.677-0.545-6.913C116.354,117.386,116.533,117.28,116.711,117.173z"/>
	<path class="st1" d="M112.465,89.702c-0.077-0.084-0.162-0.16-0.254-0.227c-1.016-1.219-1.809-3.079-3.093-3.526
		c-2.759-0.959-1.698-2.769-1.77-5.304c2.276,2.403,4.203,4.204,5.804,6.258C113.695,87.6,114.969,89.348,112.465,89.702z"/>
</g>
</svg>
